<svg width="262" height="210" viewBox="0 0 262 210" fill="none" xmlns="http://www.w3.org/2000/svg">
<path d="M113.994 209.03L89.0637 201.796C86.448 201.06 84.9768 198.322 85.7124 195.706L141.499 3.54041C142.234 0.924793 144.972 -0.546489 147.588 0.189152L172.518 7.42296C175.134 8.1586 176.605 10.8968 175.869 13.5124L120.083 205.678C119.307 208.294 116.609 209.806 113.994 209.03ZM67.4031 163.175L85.1811 144.211C87.0611 142.209 86.9385 139.021 84.8542 137.182L47.8269 104.609L84.8542 72.0368C86.9385 70.1977 87.102 67.0099 85.1811 65.0073L67.4031 46.0441C65.564 44.0824 62.458 43.9598 60.4554 45.8398L1.56324 101.013C-0.521079 102.934 -0.521079 106.244 1.56324 108.165L60.4554 163.379C62.458 165.259 65.564 165.177 67.4031 163.175ZM201.126 163.42L260.019 108.206C262.103 106.285 262.103 102.975 260.019 101.054L201.126 45.7989C199.165 43.9598 196.059 44.0415 194.179 46.0032L176.401 64.9664C174.521 66.969 174.643 70.1568 176.728 71.9959L213.755 104.609L176.728 137.182C174.643 139.021 174.48 142.209 176.401 144.211L194.179 163.175C196.018 165.177 199.124 165.259 201.126 163.42Z" fill="black"/>
</svg>
