<svg width="262" height="262" viewBox="0 0 262 262" fill="none" xmlns="http://www.w3.org/2000/svg">
<path d="M43.5969 196.187V136.241C43.5969 128.971 45.4171 121.712 49.0465 114.442" stroke="black" stroke-width="21.7985" stroke-linecap="round" stroke-linejoin="round"/>
<path d="M130.791 81.741C130.791 70.8418 130.682 37.3811 87.1939 43.5937C49.0465 49.0433 43.5969 70.8418 43.5969 81.741C43.5969 98.0899 43.6187 125.338 76.2946 125.338C119.892 125.338 130.791 98.0899 130.791 81.741Z" stroke="black" stroke-width="21.7985" stroke-linecap="round" stroke-linejoin="round"/>
<path d="M43.5971 130.791C29.0684 138.061 21.7986 145.32 21.7986 152.589C21.7986 163.489 21.7986 185.287 38.1474 196.186C70.8561 217.985 108.993 228.884 130.791 228.884C152.589 228.884 190.726 217.985 223.435 196.186C239.783 185.287 239.783 163.489 239.783 152.589C239.783 145.32 232.514 138.061 217.985 130.791" stroke="black" stroke-width="21.7985" stroke-linecap="round" stroke-linejoin="round"/>
<path d="M217.985 196.187V136.241C217.985 128.971 216.165 121.712 212.535 114.442" stroke="black" stroke-width="21.7985" stroke-linecap="round" stroke-linejoin="round"/>
<path d="M130.791 81.7418L130.823 78.5047L130.932 75.5728L131.227 72.3248L131.368 71.1804L131.728 68.8371C131.881 68.0414 132.044 67.2458 132.229 66.4392L132.883 64.0087C136.546 51.8234 146.638 39.6271 174.388 43.5944C205.32 48.0086 214.748 63.1804 217.222 74.5701L217.614 76.7935C217.669 77.1532 217.723 77.5129 217.756 77.8616L217.93 79.878L217.985 81.7418L217.952 87.0824L217.789 91.3767L217.571 94.3304C216.241 109.219 210.432 125.339 185.287 125.339C149.799 125.339 135.979 107.29 132.066 91.7582L131.488 89.1205C131.331 88.271 131.2 87.4168 131.096 86.5592L130.867 84.0851C130.818 83.305 130.792 82.5235 130.791 81.7418Z" stroke="black" stroke-width="21.7985" stroke-linecap="round" stroke-linejoin="round"/>
<path d="M108.992 163.488V185.287" stroke="black" stroke-width="21.7985" stroke-linecap="round" stroke-linejoin="round"/>
<path d="M152.589 163.488V185.287" stroke="black" stroke-width="21.7985" stroke-linecap="round" stroke-linejoin="round"/>
</svg>
