<svg width="27" height="23" viewBox="0 0 27 23" fill="none" xmlns="http://www.w3.org/2000/svg">
<path d="M20.25 3.76109H19.125V2.82097C19.125 2.57164 19.0065 2.33252 18.7955 2.15621C18.5845 1.97991 18.2984 1.88086 18 1.88086C17.7016 1.88086 17.4155 1.97991 17.2045 2.15621C16.9935 2.33252 16.875 2.57164 16.875 2.82097V3.76109H10.125V2.82097C10.125 2.57164 10.0065 2.33252 9.79549 2.15621C9.58452 1.97991 9.29837 1.88086 9 1.88086C8.70163 1.88086 8.41548 1.97991 8.2045 2.15621C7.99353 2.33252 7.875 2.57164 7.875 2.82097V3.76109H6.75C5.85489 3.76109 4.99645 4.05823 4.36351 4.58715C3.73058 5.11606 3.375 5.83343 3.375 6.58143V17.8628C3.375 18.6108 3.73058 19.3282 4.36351 19.8571C4.99645 20.386 5.85489 20.6831 6.75 20.6831H20.25C21.1451 20.6831 22.0035 20.386 22.6365 19.8571C23.2694 19.3282 23.625 18.6108 23.625 17.8628V6.58143C23.625 5.83343 23.2694 5.11606 22.6365 4.58715C22.0035 4.05823 21.1451 3.76109 20.25 3.76109ZM9 15.9826C8.77749 15.9826 8.55999 15.9274 8.37498 15.8241C8.18998 15.7208 8.04578 15.574 7.96063 15.4022C7.87549 15.2304 7.85321 15.0414 7.89662 14.859C7.94002 14.6767 8.04717 14.5092 8.2045 14.3777C8.36184 14.2462 8.56229 14.1567 8.78052 14.1204C8.99875 14.0841 9.22495 14.1027 9.43052 14.1739C9.63608 14.2451 9.81179 14.3656 9.9354 14.5202C10.059 14.6748 10.125 14.8565 10.125 15.0425C10.125 15.2918 10.0065 15.5309 9.79549 15.7072C9.58452 15.8835 9.29837 15.9826 9 15.9826ZM18 15.9826H13.5C13.2016 15.9826 12.9155 15.8835 12.7045 15.7072C12.4935 15.5309 12.375 15.2918 12.375 15.0425C12.375 14.7931 12.4935 14.554 12.7045 14.3777C12.9155 14.2014 13.2016 14.1023 13.5 14.1023H18C18.2984 14.1023 18.5845 14.2014 18.7955 14.3777C19.0065 14.554 19.125 14.7931 19.125 15.0425C19.125 15.2918 19.0065 15.5309 18.7955 15.7072C18.5845 15.8835 18.2984 15.9826 18 15.9826ZM21.375 10.3419H5.625V6.58143C5.625 6.33209 5.74353 6.09297 5.9545 5.91667C6.16548 5.74036 6.45163 5.64131 6.75 5.64131H7.875V6.58143C7.875 6.83076 7.99353 7.06988 8.2045 7.24619C8.41548 7.42249 8.70163 7.52154 9 7.52154C9.29837 7.52154 9.58452 7.42249 9.79549 7.24619C10.0065 7.06988 10.125 6.83076 10.125 6.58143V5.64131H16.875V6.58143C16.875 6.83076 16.9935 7.06988 17.2045 7.24619C17.4155 7.42249 17.7016 7.52154 18 7.52154C18.2984 7.52154 18.5845 7.42249 18.7955 7.24619C19.0065 7.06988 19.125 6.83076 19.125 6.58143V5.64131H20.25C20.5484 5.64131 20.8345 5.74036 21.0455 5.91667C21.2565 6.09297 21.375 6.33209 21.375 6.58143V10.3419Z" fill="#39B58B"/>
</svg>
