<svg width="27" height="22" viewBox="0 0 27 22" fill="none" xmlns="http://www.w3.org/2000/svg">
<path d="M19.7451 3.66732H18.6482V2.75065C18.6482 2.50754 18.5326 2.27438 18.3269 2.10247C18.1212 1.93056 17.8422 1.83398 17.5513 1.83398C17.2603 1.83398 16.9813 1.93056 16.7756 2.10247C16.5699 2.27438 16.4543 2.50754 16.4543 2.75065V3.66732H9.87267V2.75065C9.87267 2.50754 9.75709 2.27438 9.55138 2.10247C9.34566 1.93056 9.06665 1.83398 8.77572 1.83398C8.4848 1.83398 8.20579 1.93056 8.00007 2.10247C7.79435 2.27438 7.67878 2.50754 7.67878 2.75065V3.66732H6.58184C5.70906 3.66732 4.87203 3.95705 4.25488 4.47277C3.63773 4.9885 3.29102 5.68797 3.29102 6.41732V17.4173C3.29102 18.1467 3.63773 18.8461 4.25488 19.3619C4.87203 19.8776 5.70906 20.1673 6.58184 20.1673H19.7451C20.6179 20.1673 21.455 19.8776 22.0721 19.3619C22.6893 18.8461 23.036 18.1467 23.036 17.4173V6.41732C23.036 5.68797 22.6893 4.9885 22.0721 4.47277C21.455 3.95705 20.6179 3.66732 19.7451 3.66732ZM8.77572 15.584C8.55877 15.584 8.34669 15.5302 8.1663 15.4295C7.9859 15.3288 7.84531 15.1856 7.76228 15.0181C7.67926 14.8506 7.65753 14.6663 7.69986 14.4885C7.74219 14.3107 7.84666 14.1473 8.00007 14.0191C8.15348 13.8909 8.34894 13.8036 8.56172 13.7683C8.77451 13.7329 8.99507 13.751 9.19551 13.8204C9.39595 13.8898 9.56726 14.0073 9.6878 14.158C9.80833 14.3088 9.87267 14.486 9.87267 14.6673C9.87267 14.9104 9.75709 15.1436 9.55138 15.3155C9.34566 15.4874 9.06665 15.584 8.77572 15.584ZM17.5513 15.584H13.1635C12.8726 15.584 12.5936 15.4874 12.3878 15.3155C12.1821 15.1436 12.0665 14.9104 12.0665 14.6673C12.0665 14.4242 12.1821 14.191 12.3878 14.0191C12.5936 13.8472 12.8726 13.7507 13.1635 13.7507H17.5513C17.8422 13.7507 18.1212 13.8472 18.3269 14.0191C18.5326 14.191 18.6482 14.4242 18.6482 14.6673C18.6482 14.9104 18.5326 15.1436 18.3269 15.3155C18.1212 15.4874 17.8422 15.584 17.5513 15.584ZM20.8421 10.084H5.4849V6.41732C5.4849 6.1742 5.60047 5.94104 5.80619 5.76914C6.0119 5.59723 6.29091 5.50065 6.58184 5.50065H7.67878V6.41732C7.67878 6.66043 7.79435 6.89359 8.00007 7.0655C8.20579 7.23741 8.4848 7.33398 8.77572 7.33398C9.06665 7.33398 9.34566 7.23741 9.55138 7.0655C9.75709 6.89359 9.87267 6.66043 9.87267 6.41732V5.50065H16.4543V6.41732C16.4543 6.66043 16.5699 6.89359 16.7756 7.0655C16.9813 7.23741 17.2603 7.33398 17.5513 7.33398C17.8422 7.33398 18.1212 7.23741 18.3269 7.0655C18.5326 6.89359 18.6482 6.66043 18.6482 6.41732V5.50065H19.7451C20.0361 5.50065 20.3151 5.59723 20.5208 5.76914C20.7265 5.94104 20.8421 6.1742 20.8421 6.41732V10.084Z" fill="#265F4C"/>
</svg>
