<svg width="36" height="23" viewBox="0 0 36 23" fill="none" xmlns="http://www.w3.org/2000/svg">
<path d="M15.4554 17.0965C14.5137 16.5524 13.5372 15.4281 13.1259 14.4405C12.325 12.5164 13.8117 11.3936 14.9089 10.6019C20.8191 6.33931 29.6613 1.46886 31.4998 0.807743C32.5778 0.419916 34.8927 -0.412507 35.4352 0.24459C35.7083 0.574645 35.5352 1.28298 34.1887 3.1126C32.2669 5.72491 21.1829 14.4847 19.7512 15.609C17.9273 17.0412 16.9871 17.9807 15.4549 17.096L15.4554 17.0965Z" fill="#5D4CD3"/>
<path d="M11.2291 15.3779C12.627 16.3811 13.1908 18.3218 12.7542 19.754C11.8756 22.6361 6.85264 23.7629 4.02145 22.4648C3.12314 22.0529 2.27379 21.4199 1.56069 20.6442C0.961146 19.9921 0.590215 19.3245 0.125417 18.5448C-0.0653478 18.2253 -0.0244697 17.9264 0.153678 17.7873C0.307602 17.6672 0.561954 17.7335 0.656832 17.7596C1.38355 17.9576 3.38002 18.2499 4.57457 17.5803C4.9026 17.3964 5.13828 17.1578 5.41181 16.8805C5.9296 16.3565 6.0159 16.0636 6.48827 15.615C6.48827 15.615 6.92834 15.1976 7.44512 14.9303C8.51097 14.3797 10.1269 14.5862 11.2281 15.3769L11.2291 15.3779Z" fill="#5D4CD3"/>
</svg>
