<svg width="38" height="40" viewBox="0 0 38 40" fill="currentColor" xmlns="http://www.w3.org/2000/svg">
<path id="home" d="M34.3758 25.0012H32.9476V35.2254C32.9476 37.8618 30.7856 40.0012 28.1212 40.0012H24.2109V30.508C24.2109 28.7537 22.7729 27.3307 20.9999 27.3307H17.0798C15.3068 27.3307 13.8688 28.7537 13.8688 30.508V40.0012H9.97814C7.31381 40.0012 5.15673 37.8618 5.15673 35.2254V25.0012H3.62019C0.507692 25.0012 -1.15198 21.2683 0.911528 18.8999L7.29903 11.5655L16.2918 1.23904C17.7298 -0.413012 20.271 -0.413012 21.7091 1.23904L30.6969 11.5655L37.0893 18.8999C39.1479 21.2683 37.4932 25.0012 34.3758 25.0012Z" fill="currentColor"/>
</svg>
