<svg width="302" height="313" viewBox="0 0 302 313" fill="none" xmlns="http://www.w3.org/2000/svg">
<path d="M70.4752 191.763H30.1821C13.582 191.763 0 205.345 0 221.945V297.4C0 305.7 6.79098 312.491 15.0911 312.491H70.4752C78.7753 312.491 85.5663 305.7 85.5663 297.4V206.854C85.5663 198.554 78.7753 191.763 70.4752 191.763Z" fill="#BAAFFF"/>
<path d="M170.985 131.4H130.692C114.091 131.4 100.509 144.982 100.509 161.583V297.402C100.509 305.702 107.3 312.493 115.6 312.493H186.076C194.376 312.493 201.167 305.702 201.167 297.402V161.583C201.167 144.982 187.736 131.4 170.985 131.4Z" fill="#BAAFFF"/>
<path d="M271.641 237.034H231.348C223.048 237.034 216.257 243.825 216.257 252.125V297.398C216.257 305.698 223.048 312.489 231.348 312.489H286.732C295.032 312.489 301.823 305.698 301.823 297.398V267.216C301.823 250.616 288.241 237.034 271.641 237.034Z" fill="#BAAFFF"/>
<path d="M196.327 53.6864C201.005 49.0082 202.816 43.4245 201.307 38.5954C199.798 33.7662 195.12 30.2953 188.48 29.2389L173.992 26.8244C173.389 26.8244 172.031 25.768 171.729 25.1643L163.731 9.16782C157.694 -3.05594 143.961 -3.05594 137.925 9.16782L129.927 25.1643C129.776 25.768 128.417 26.8244 127.814 26.8244L113.326 29.2389C106.686 30.2953 102.158 33.7662 100.498 38.5954C98.9892 43.4245 100.8 49.0082 105.478 53.6864L116.646 65.0047C117.249 65.4575 117.702 67.2684 117.551 67.872L114.382 81.7558C111.967 92.1686 115.891 96.8469 118.457 98.6578C121.023 100.469 126.607 102.883 135.812 97.4505L149.394 89.4522C149.998 88.9995 151.96 88.9995 152.563 89.4522L165.994 97.4505C170.22 100.016 173.691 100.771 176.407 100.771C179.576 100.771 181.84 99.5633 183.198 98.6578C185.764 96.8469 189.687 92.1686 187.273 81.7558L184.104 67.872C183.953 67.1175 184.405 65.4575 185.009 65.0047L196.327 53.6864Z" fill="#BAAFFF"/>
</svg>
