<svg width="32" height="32" viewBox="0 0 32 32" fill="none" xmlns="http://www.w3.org/2000/svg">
<path d="M11.0554 22.6977L8.5293 20.1716L24.5733 2.18316L29.8421 1.46094L28.9513 6.74656L11.0554 22.6977Z" fill="#4C63DD"/>
<path d="M12.8251 27.0158C12.6194 28.428 12.028 28.4948 11.5115 27.1645C11.5115 27.1645 11.0976 26.0991 8.11361 23.1151C5.12961 20.1313 4.064 19.7174 4.064 19.7174C2.73363 19.2006 2.80073 18.6092 4.21285 18.4033C4.21285 18.4033 7.30859 17.9519 10.2923 20.9359C13.2765 23.9199 12.8251 27.0158 12.8251 27.0158Z" fill="#4C63DD"/>
<path d="M9.50195 20.0938L11.1334 21.7252L4.2653 28.5933L2.63387 26.9618L9.50195 20.0938Z" fill="#4C63DD"/>
<path d="M4.88984 29.2433C4.21421 29.9188 3.29486 30.095 2.83648 29.6365L1.59112 28.3912C1.13261 27.9327 1.30885 27.0134 1.98435 26.3377C2.65998 25.6622 3.5792 25.4862 4.03758 25.9447L5.28294 27.1899C5.74132 27.6485 5.56534 28.5677 4.88984 29.2433Z" fill="#4C63DD"/>
<path d="M22.941 20.1237L20.4149 22.6498L2.42619 6.6058L1.7041 1.33691L6.98973 2.22771L22.941 20.1237Z" fill="#4C63DD"/>
<path d="M27.258 18.3545C28.6702 18.5602 28.7369 19.1514 27.4067 19.668C27.4067 19.668 26.3413 20.0817 23.3573 23.0658C20.3736 26.0497 19.9597 27.1154 19.9597 27.1154C19.4428 28.4458 18.8515 28.3787 18.6455 26.9666C18.6455 26.9666 18.194 23.871 21.1781 20.887C24.1622 17.9027 27.258 18.3545 27.258 18.3545Z" fill="#4C63DD"/>
<path d="M20.3369 21.6777L21.9683 20.0463L28.8362 26.9142L27.2048 28.5456L20.3369 21.6777Z" fill="#4C63DD"/>
<path d="M29.4855 26.29C30.161 26.9655 30.3373 27.8848 29.8788 28.3435L28.6333 29.5885C28.1748 30.0472 27.2553 29.8711 26.5799 29.1954C25.9044 28.52 25.7283 27.6007 26.187 27.1422L27.4322 25.8969C27.8907 25.4384 28.8099 25.6143 29.4855 26.29Z" fill="#4C63DD"/>
</svg>
