<svg width="262" height="176" viewBox="0 0 262 176" fill="none" xmlns="http://www.w3.org/2000/svg">
<path d="M119.157 103.177L165.127 117.073C162.038 129.967 157.175 140.735 150.538 149.378C143.896 158.026 135.656 164.549 125.815 168.949C115.971 173.349 103.446 175.549 88.2349 175.549C69.787 175.549 54.7146 172.868 43.0187 167.507C31.3207 162.144 21.2306 152.715 12.7371 139.214C4.24571 125.714 0 108.432 0 87.3693C0 59.289 7.47069 37.7067 22.4054 22.6245C37.3427 7.54339 58.4761 0 85.807 0C107.192 0 124.002 4.32608 136.234 12.9695C148.474 21.6166 157.56 34.8963 163.505 52.8037L117.188 63.1088C115.568 57.9396 113.868 54.1546 112.094 51.7609C109.159 47.7481 105.57 44.6603 101.322 42.4981C97.0765 40.3378 92.3312 39.2542 87.0811 39.2542C75.1896 39.2542 66.0809 44.0368 59.7502 53.5981C54.968 60.6936 52.5743 71.8352 52.5743 87.0223C52.5743 105.838 55.4287 118.734 61.1395 125.714C66.8523 132.69 74.883 136.177 85.2291 136.177C95.2618 136.177 102.845 133.36 107.983 127.722C113.117 122.093 116.842 113.905 119.157 103.177ZM248.193 79.205L244.684 96.7591H261.582V115.834H240.874L236.011 140.16H216.349L221.226 115.834H205.987L201.075 140.16H181.552L186.428 115.834H176.921V96.7591H190.255L193.775 79.205H176.921V60.1305H197.601L202.56 35.3893H222.222L217.23 60.1305H232.395L237.358 35.3893H256.95L252.006 60.1305H261.582V79.205H248.193ZM228.573 79.205H213.38L209.837 96.7591H225.052L228.573 79.205Z" fill="black"/>
</svg>
