<svg width="52" height="52" viewBox="0 0 52 52" fill="none" xmlns="http://www.w3.org/2000/svg">
<path d="M22.0918 51.832C21.3878 51.832 20.8118 51.608 20.3638 51.16C19.9158 50.712 19.6918 50.136 19.6918 49.432V31.864H2.60375C1.89975 31.864 1.29175 31.64 0.77975 31.192C0.33175 30.744 0.10775 30.168 0.10775 29.464V22.456C0.10775 21.752 0.33175 21.176 0.77975 20.728C1.29175 20.28 1.89975 20.056 2.60375 20.056H19.6918V2.96799C19.6918 2.264 19.9158 1.688 20.3638 1.24C20.8118 0.791998 21.3878 0.567997 22.0918 0.567997H29.9638C30.6038 0.567997 31.1478 0.791998 31.5958 1.24C32.1078 1.688 32.3638 2.264 32.3638 2.96799V20.056H49.3558C50.0598 20.056 50.6358 20.28 51.0837 20.728C51.5318 21.176 51.7558 21.752 51.7558 22.456V29.464C51.7558 30.168 51.5318 30.744 51.0837 31.192C50.6358 31.64 50.0598 31.864 49.3558 31.864H32.3638V49.432C32.3638 50.136 32.1078 50.712 31.5958 51.16C31.1478 51.608 30.6038 51.832 29.9638 51.832H22.0918Z" fill="#2C785F"/>
</svg>
