<svg width="24" height="20" viewBox="0 0 24 20" fill="none" xmlns="http://www.w3.org/2000/svg">
<path d="M17.9499 3.65877H16.9527V2.8455C16.9527 2.62981 16.8476 2.42295 16.6606 2.27043C16.4736 2.11791 16.2199 2.03223 15.9554 2.03223C15.691 2.03223 15.4373 2.11791 15.2503 2.27043C15.0633 2.42295 14.9582 2.62981 14.9582 2.8455V3.65877H8.97489V2.8455C8.97489 2.62981 8.86983 2.42295 8.68282 2.27043C8.4958 2.11791 8.24215 2.03223 7.97768 2.03223C7.7132 2.03223 7.45955 2.11791 7.27253 2.27043C7.08552 2.42295 6.98046 2.62981 6.98046 2.8455V3.65877H5.98324C5.1898 3.65877 4.42886 3.91582 3.86781 4.37338C3.30677 4.83093 2.99158 5.45151 2.99158 6.09858V15.8578C2.99158 16.5049 3.30677 17.1255 3.86781 17.5831C4.42886 18.0406 5.1898 18.2977 5.98324 18.2977H17.9499C18.7433 18.2977 19.5042 18.0406 20.0653 17.5831C20.6263 17.1255 20.9415 16.5049 20.9415 15.8578V6.09858C20.9415 5.45151 20.6263 4.83093 20.0653 4.37338C19.5042 3.91582 18.7433 3.65877 17.9499 3.65877ZM7.97768 14.2313C7.78044 14.2313 7.58764 14.1836 7.42365 14.0942C7.25966 14.0049 7.13184 13.8779 7.05636 13.7293C6.98089 13.5806 6.96114 13.4171 6.99962 13.2594C7.03809 13.1016 7.13307 12.9567 7.27253 12.843C7.412 12.7292 7.58969 12.6518 7.78313 12.6204C7.97657 12.589 8.17708 12.6051 8.3593 12.6667C8.54151 12.7282 8.69726 12.8325 8.80683 12.9662C8.91641 13.0999 8.97489 13.2572 8.97489 13.418C8.97489 13.6337 8.86983 13.8406 8.68282 13.9931C8.4958 14.1456 8.24215 14.2313 7.97768 14.2313ZM15.9554 14.2313H11.9666C11.7021 14.2313 11.4484 14.1456 11.2614 13.9931C11.0744 13.8406 10.9693 13.6337 10.9693 13.418C10.9693 13.2023 11.0744 12.9955 11.2614 12.843C11.4484 12.6904 11.7021 12.6048 11.9666 12.6048H15.9554C16.2199 12.6048 16.4736 12.6904 16.6606 12.843C16.8476 12.9955 16.9527 13.2023 16.9527 13.418C16.9527 13.6337 16.8476 13.8406 16.6606 13.9931C16.4736 14.1456 16.2199 14.2313 15.9554 14.2313ZM18.9471 9.35167H4.98602V6.09858C4.98602 5.88289 5.09108 5.67603 5.2781 5.52352C5.46511 5.371 5.71876 5.28531 5.98324 5.28531H6.98046V6.09858C6.98046 6.31428 7.08552 6.52114 7.27253 6.67365C7.45955 6.82617 7.7132 6.91186 7.97768 6.91186C8.24215 6.91186 8.4958 6.82617 8.68282 6.67365C8.86983 6.52114 8.97489 6.31428 8.97489 6.09858V5.28531H14.9582V6.09858C14.9582 6.31428 15.0633 6.52114 15.2503 6.67365C15.4373 6.82617 15.691 6.91186 15.9554 6.91186C16.2199 6.91186 16.4736 6.82617 16.6606 6.67365C16.8476 6.52114 16.9527 6.31428 16.9527 6.09858V5.28531H17.9499C18.2144 5.28531 18.468 5.371 18.655 5.52352C18.842 5.67603 18.9471 5.88289 18.9471 6.09858V9.35167Z" fill="#BAAFFF"/>
</svg>
