<svg width="18" height="18" viewBox="0 0 18 18" fill="none" xmlns="http://www.w3.org/2000/svg">
<g id="&#240;&#159;&#166;&#134; icon &#34;calendar&#34;">
<path id="Vector" d="M14.95 2.33268H13.9528V1.49935C13.9528 1.27834 13.8477 1.06637 13.6607 0.910093C13.4737 0.753813 13.22 0.666016 12.9556 0.666016C12.6911 0.666016 12.4374 0.753813 12.2504 0.910093C12.0634 1.06637 11.9583 1.27834 11.9583 1.49935V2.33268H5.97502V1.49935C5.97502 1.27834 5.86995 1.06637 5.68294 0.910093C5.49592 0.753813 5.24228 0.666016 4.9778 0.666016C4.71332 0.666016 4.45967 0.753813 4.27266 0.910093C4.08564 1.06637 3.98058 1.27834 3.98058 1.49935V2.33268H2.98336C2.18992 2.33268 1.42898 2.59607 0.867936 3.06492C0.306891 3.53376 -0.00830078 4.16964 -0.00830078 4.83268V14.8327C-0.00830078 15.4957 0.306891 16.1316 0.867936 16.6004C1.42898 17.0693 2.18992 17.3327 2.98336 17.3327H14.95C15.7434 17.3327 16.5044 17.0693 17.0654 16.6004C17.6265 16.1316 17.9417 15.4957 17.9417 14.8327V4.83268C17.9417 4.16964 17.6265 3.53376 17.0654 3.06492C16.5044 2.59607 15.7434 2.33268 14.95 2.33268ZM4.9778 13.166C4.78057 13.166 4.58776 13.1171 4.42377 13.0256C4.25978 12.934 4.13196 12.8039 4.05649 12.6516C3.98101 12.4993 3.96126 12.3318 3.99974 12.1701C4.03822 12.0085 4.13319 11.86 4.27266 11.7434C4.41212 11.6269 4.58981 11.5475 4.78325 11.5154C4.97669 11.4832 5.1772 11.4997 5.35942 11.5628C5.54164 11.6259 5.69738 11.7327 5.80695 11.8697C5.91653 12.0067 5.97502 12.1679 5.97502 12.3327C5.97502 12.5537 5.86995 12.7657 5.68294 12.9219C5.49592 13.0782 5.24228 13.166 4.9778 13.166ZM12.9556 13.166H8.96668C8.7022 13.166 8.44855 13.0782 8.26154 12.9219C8.07452 12.7657 7.96946 12.5537 7.96946 12.3327C7.96946 12.1117 8.07452 11.8997 8.26154 11.7434C8.44855 11.5871 8.7022 11.4993 8.96668 11.4993H12.9556C13.22 11.4993 13.4737 11.5871 13.6607 11.7434C13.8477 11.8997 13.9528 12.1117 13.9528 12.3327C13.9528 12.5537 13.8477 12.7657 13.6607 12.9219C13.4737 13.0782 13.22 13.166 12.9556 13.166ZM15.9472 8.16602H1.98614V4.83268C1.98614 4.61167 2.0912 4.39971 2.27822 4.24343C2.46523 4.08715 2.71888 3.99935 2.98336 3.99935H3.98058V4.83268C3.98058 5.0537 4.08564 5.26566 4.27266 5.42194C4.45967 5.57822 4.71332 5.66602 4.9778 5.66602C5.24228 5.66602 5.49592 5.57822 5.68294 5.42194C5.86995 5.26566 5.97502 5.0537 5.97502 4.83268V3.99935H11.9583V4.83268C11.9583 5.0537 12.0634 5.26566 12.2504 5.42194C12.4374 5.57822 12.6911 5.66602 12.9556 5.66602C13.22 5.66602 13.4737 5.57822 13.6607 5.42194C13.8477 5.26566 13.9528 5.0537 13.9528 4.83268V3.99935H14.95C15.2145 3.99935 15.4681 4.08715 15.6551 4.24343C15.8421 4.39971 15.9472 4.61167 15.9472 4.83268V8.16602Z" fill="#B4FFE6"/>
</g>
</svg>
