<svg width="44" height="41" viewBox="0 0 44 41" fill="none" xmlns="http://www.w3.org/2000/svg">
<g id="exit">
<path id="Vector" d="M11.7971 14.4489V24.2702C11.7971 26.2919 13.401 27.9292 15.3814 27.9292H25.2382C25.9937 27.9292 26.6062 28.5544 26.6062 29.3256V35.5751C26.6062 38.5705 24.2267 40.9995 21.2925 40.9995H5.3137C2.37949 40.9995 0 38.5705 0 35.5751V5.42441C0 2.42907 2.37949 0 5.3137 0H21.295C24.2292 0 26.6087 2.42907 26.6087 5.42441V8.9399C26.6087 10.3722 25.4716 11.5304 24.071 11.5304H14.6585C13.0797 11.5304 11.7996 12.8372 11.7996 14.4489H11.7971Z" fill="#BAAFFF"/>
<path id="Vector_2" d="M42.3284 21.4239L37.0633 24.471L31.7981 27.5204C30.2799 28.3976 28.3844 27.2999 28.3844 25.5431V23.176H17.0186C15.755 23.176 14.7297 22.1479 14.7297 20.8808V18.045C14.7297 16.7779 15.755 15.7498 17.0186 15.7498H28.3844V13.3502C28.3844 11.5934 30.2799 10.4957 31.7981 11.3753L37.0633 14.4223L42.3284 17.4717C43.8467 18.349 43.8467 20.5443 42.3284 21.4239Z" fill="#BAAFFF"/>
</g>
</svg>
