<svg width="33" height="49" viewBox="0 0 33 49" fill="none" xmlns="http://www.w3.org/2000/svg">
<g id="Capa_1" clip-path="url(#clip0_221_123)">
<g id="Group 59">
<path id="Vector" d="M32.9647 37.447L29.5319 17.072C29.512 16.952 29.502 16.832 29.502 16.707C29.4075 12.022 25.706 8.24195 21.0792 8.02195C21.3777 7.32695 21.5468 6.55695 21.5468 5.75195C21.5468 2.57695 18.9846 0.00195312 15.8254 0.00195312C12.6662 0.00195312 10.104 2.57695 10.104 5.75195C10.104 6.56695 10.2782 7.34695 10.5816 8.04695C6.16373 8.49695 2.70602 12.217 2.64134 16.762C2.64134 16.847 2.63637 16.932 2.62642 17.017L0.0194541 37.552C-0.179551 39.117 1.03438 40.502 2.60154 40.502H30.3926C32.0045 40.502 33.2284 39.047 32.9598 37.447H32.9647Z" fill="#BAAFFF"/>
<path id="Vector_2" d="M22.8156 44.397C22.0992 47.052 19.6813 49.002 16.8156 49.002C13.7858 49.002 11.2634 46.822 10.7112 43.942C10.5669 43.197 11.1291 42.502 11.8803 42.502C14.149 42.502 18.8753 42.502 21.3828 42.502C22.3629 42.502 23.0743 43.442 22.8156 44.397Z" fill="#BAAFFF"/>
</g>
</g>
<defs>
<clipPath id="clip0_221_123">
<rect width="33" height="49" fill="white" transform="translate(0 0.00195312)"/>
</clipPath>
</defs>
</svg>
