<svg width="24" height="18" viewBox="0 0 24 18" fill="none" xmlns="http://www.w3.org/2000/svg">
<path d="M6.79559 3.00613C3.56473 5.20316 1.80005 8.60018 1.80005 8.60018C1.80005 8.60018 5.65459 16.0202 12.4 16.0202C14.5734 16.0202 16.4465 15.25 17.9874 14.2059M11.34 1.24189C11.685 1.20151 12.0384 1.18018 12.4 1.18018C19.1455 1.18018 23.0001 8.60018 23.0001 8.60018C23.0001 8.60018 22.2667 10.0118 20.88 11.6037" stroke="#5241C4" stroke-width="2" stroke-linecap="round" stroke-linejoin="round"/>
<path d="M14.5201 10.9702C13.9574 11.4737 13.2146 11.78 12.4001 11.78C10.6437 11.78 9.22006 10.3563 9.22006 8.59996C9.22006 7.72684 9.57191 6.93598 10.1415 6.36133" stroke="#5241C4" stroke-width="2" stroke-linecap="round" stroke-linejoin="round"/>
</svg>
