<svg width="24" height="24" viewBox="0 0 24 24" fill="none" xmlns="http://www.w3.org/2000/svg">
<path d="M1.80005 1L23.0001 22.2" stroke="#5241C4" stroke-width="2" stroke-linecap="round" stroke-linejoin="round"/>
<path d="M6.79559 6.00613C3.56473 8.20316 1.80005 11.6002 1.80005 11.6002C1.80005 11.6002 5.65459 19.0202 12.4 19.0202C14.5734 19.0202 16.4465 18.25 17.9874 17.2059M11.34 4.24189C11.685 4.20151 12.0384 4.18018 12.4 4.18018C19.1455 4.18018 23.0001 11.6002 23.0001 11.6002C23.0001 11.6002 22.2667 13.0118 20.88 14.6037" stroke="#5241C4" stroke-width="2" stroke-linecap="round" stroke-linejoin="round"/>
<path d="M14.5201 13.9702C13.9574 14.4737 13.2146 14.78 12.4001 14.78C10.6438 14.78 9.22009 13.3563 9.22009 11.6C9.22009 10.7268 9.57194 9.93598 10.1416 9.36133" stroke="#5241C4" stroke-width="2" stroke-linecap="round" stroke-linejoin="round"/>
</svg>
