<svg width="45" height="45" viewBox="0 0 45 45" fill="none" xmlns="http://www.w3.org/2000/svg">
<path d="M44.9998 1.11205C45.0112 0.574617 44.5839 0.130213 44.0454 0.118838L38.3451 0.000222296C37.8066 -0.0111518 37.3614 0.415379 37.35 0.952807L37.2906 3.79756C37.2906 3.81056 37.2792 4.34596 37.2617 5.19049C37.2544 5.53943 36.8482 5.72751 36.5772 5.50734C36.204 5.2043 35.8084 4.89964 35.3909 4.59741C33.5762 3.28451 31.6561 2.24987 29.6832 1.52151C27.2056 0.606708 24.6396 0.173272 22.0558 0.233392C19.1627 0.300418 16.18 1.00196 13.4297 2.26205C10.7299 3.49899 8.21893 5.28961 6.16822 7.44054C2.04198 11.7684 -0.145872 17.3665 0.00755488 23.2027C0.167086 29.2716 2.84981 34.8949 7.56127 39.0371C9.65186 40.8752 12.0277 42.3332 14.623 43.3702C17.1763 44.3911 19.8814 44.9533 22.4465 44.9972C22.5551 44.9992 22.6634 45 22.7725 45C25.3852 45 28.1115 44.4703 30.6782 43.4612C33.6015 42.3125 36.2728 40.5462 38.4028 38.3534C40.316 36.3841 41.8234 34.067 42.8831 31.4676L43.9575 28.8321C44.1606 28.3344 43.9205 27.7665 43.422 27.5642L38.1408 25.4198C37.6422 25.2175 37.0733 25.4568 36.8706 25.9544L35.7962 28.5899C35.108 30.2782 34.137 31.7743 32.9104 33.0376C29.7397 36.3016 25.493 37.4106 22.5767 37.3619C16.4767 37.2583 7.89783 32.2106 7.65609 23.0028C7.55638 19.2099 8.99664 15.5527 11.7111 12.7055C14.5151 9.76493 18.4489 7.95644 22.2345 7.86869C26.6171 7.76673 30.1089 9.98225 32.2825 11.8801C32.5494 12.1133 32.363 12.5512 32.0094 12.5215C30.517 12.3964 29.4036 12.2741 28.5921 12.1697L25.7649 11.8054C25.231 11.7367 24.7422 12.1129 24.6734 12.6458L23.9433 18.2898C23.8745 18.8228 24.2514 19.3107 24.7853 19.3793L27.6125 19.7437C29.71 20.0138 33.6255 20.3912 40.3697 20.654C40.4649 20.6577 40.5402 20.6605 40.5931 20.663C40.6855 20.6699 40.7779 20.6731 40.8703 20.6731C42.3895 20.6731 43.8269 19.7636 44.4243 18.2691C44.6103 17.8044 44.6982 17.3247 44.6978 16.853C44.6978 16.8059 44.697 16.7588 44.695 16.7117C44.6998 15.7388 44.8464 8.4573 44.9404 3.95761L44.9998 1.11286V1.11205Z" fill="#2C785F"/>
</svg>
