<svg width="41" height="41" viewBox="0 0 41 41" fill="none" xmlns="http://www.w3.org/2000/svg">
<path id="ajustes" d="M38.0361 14.5742H34.5635L37.0926 12.0476C38.2436 10.8941 38.2436 9.00713 37.0926 7.85617L32.8988 3.66231C31.7478 2.51135 29.8608 2.51135 28.7074 3.66231L26.4277 5.94448V2.96581C26.4277 1.33569 25.094 0.00195312 23.4639 0.00195312H17.5361C15.906 0.00195312 14.5723 1.33569 14.5723 2.96581V5.94448L12.5396 3.9093C11.3861 2.75834 9.49916 2.75834 8.34819 3.9093L4.15434 8.10316C3.00337 9.25412 3.00337 11.1411 4.15434 12.2945L6.43651 14.5742H2.96386C1.33373 14.5742 0 15.908 0 17.5381V23.4658C0 25.0959 1.33373 26.4297 2.96386 26.4297H5.94253L3.90735 28.4624C2.75639 29.6158 2.75639 31.5028 3.90735 32.6538L8.1012 36.8476C9.25217 37.9986 11.1392 37.9986 12.2926 36.8476L14.5723 34.5654V38.0381C14.5723 39.6682 15.906 41.002 17.5361 41.002H23.4639C25.094 41.002 26.4277 39.6682 26.4277 38.0381V34.5654L28.9544 37.0946C30.1078 38.2456 31.9948 38.2456 33.1458 37.0946L37.3396 32.9007C38.4906 31.7498 38.4906 29.8628 37.3396 28.7094L35.0575 26.4297H38.0361C39.6663 26.4297 41 25.0959 41 23.4658V17.5381C41 15.908 39.6663 14.5742 38.0361 14.5742ZM20.747 28.1586C16.5186 28.1586 13.0904 24.7304 13.0904 20.502C13.0904 16.2735 16.5186 12.8453 20.747 12.8453C24.9754 12.8453 28.4036 16.2735 28.4036 20.502C28.4036 24.7304 24.9754 28.1586 20.747 28.1586Z" fill="#BAAFFF"/>
</svg>
