<svg width="43" height="46" viewBox="0 0 43 46" fill="none" xmlns="http://www.w3.org/2000/svg">
<path d="M7.65122 15.7077C11.7178 15.7077 15.0143 12.4111 15.0143 8.34458C15.0143 4.27803 11.7178 0.981445 7.65122 0.981445C3.58467 0.981445 0.288086 4.27803 0.288086 8.34458C0.288086 12.4111 3.58467 15.7077 7.65122 15.7077Z" fill="#FFCC4D"/>
<path d="M21.1502 45.1603C25.2168 45.1603 28.5134 41.8638 28.5134 37.7972C28.5134 33.7307 25.2168 30.4341 21.1502 30.4341C17.0837 30.4341 13.7871 33.7307 13.7871 37.7972C13.7871 41.8638 17.0837 45.1603 21.1502 45.1603Z" fill="#FFCC4D"/>
<path d="M21.149 42.7057C23.86 42.7057 26.0577 40.508 26.0577 37.7969C26.0577 35.0859 23.86 32.8882 21.149 32.8882C18.438 32.8882 16.2402 35.0859 16.2402 37.7969C16.2402 40.508 18.438 42.7057 21.149 42.7057Z" fill="#DD2E44"/>
<path d="M34.6483 15.7077C38.7148 15.7077 42.0114 12.4111 42.0114 8.34458C42.0114 4.27803 38.7148 0.981445 34.6483 0.981445C30.5817 0.981445 27.2852 4.27803 27.2852 8.34458C27.2852 12.4111 30.5817 15.7077 34.6483 15.7077Z" fill="#FFCC4D"/>
<path d="M7.65094 13.2535C10.362 13.2535 12.5597 11.0558 12.5597 8.34479C12.5597 5.63376 10.362 3.43604 7.65094 3.43604C4.93991 3.43604 2.74219 5.63376 2.74219 8.34479C2.74219 11.0558 4.93991 13.2535 7.65094 13.2535Z" fill="#E6AAAA"/>
<path d="M34.649 13.2535C37.36 13.2535 39.5577 11.0558 39.5577 8.34479C39.5577 5.63376 37.36 3.43604 34.649 3.43604C31.938 3.43604 29.7402 5.63376 29.7402 8.34479C29.7402 11.0558 31.938 13.2535 34.649 13.2535Z" fill="#E6AAAA"/>
<path d="M40.7866 27.9796C40.7866 36.5699 34.7452 36.5699 34.7452 36.5699H7.55805C7.55805 36.5699 1.5166 36.5699 1.5166 27.9796C1.5166 27.9796 3.02727 0.981445 21.1516 0.981445C39.2772 0.981445 40.7866 27.9796 40.7866 27.9796Z" fill="#FFCC4D"/>
<path d="M12.5596 21.8435C12.5596 21.8435 12.5596 19.3892 15.0139 19.3892C17.4683 19.3892 17.4683 21.8435 17.4683 21.8435V24.2979C17.4683 24.2979 17.4683 26.7523 15.0139 26.7523C12.5596 26.7523 12.5596 24.2979 12.5596 24.2979V21.8435ZM24.8315 21.8435C24.8315 21.8435 24.8315 19.3892 27.2858 19.3892C29.7402 19.3892 29.7402 21.8435 29.7402 21.8435V24.2979C29.7402 24.2979 29.7402 26.7523 27.2858 26.7523C24.8315 26.7523 24.8315 24.2979 24.8315 24.2979V21.8435Z" fill="#272B2B"/>
<path d="M28.1187 29.207C25.171 29.207 22.5951 30.3765 21.1507 32.1253C19.7063 30.3765 17.1292 29.207 14.1815 29.207C1.51568 29.207 1.56844 29.7237 1.51568 33.1119C1.40891 39.9965 9.65194 41.5795 14.1815 41.4789C17.128 41.4139 19.7063 40.2652 21.1507 38.5373C22.5951 40.2652 25.171 41.4151 28.1187 41.4789C32.6482 41.5795 40.8925 39.9965 40.7845 33.1119C40.7317 29.7237 40.7845 29.207 28.1187 29.207Z" fill="white"/>
<path d="M40.3685 31.9581C40.6188 32.3005 40.7771 32.6797 40.7845 33.1105C40.8213 35.4483 39.8702 37.1639 38.4344 38.4205L32.1942 39.0243L40.3685 31.9581ZM17.4691 31.6612C16.2419 32.8883 19.9235 36.5699 21.1507 36.5699C22.3779 36.5699 26.0595 32.8883 24.8323 31.6612C23.6051 30.434 18.6963 30.434 17.4691 31.6612ZM11.3332 4.66301C14.6061 7.11739 21.1507 9.57176 21.1507 9.57176C21.1507 9.57176 27.6953 7.11739 30.9682 4.66301L21.1507 5.8902L11.3332 4.66301ZM21.1507 3.43582C21.1507 3.43582 23.178 2.67497 25.5391 1.57786C24.1941 1.19988 22.7399 0.981445 21.1507 0.981445C19.5615 0.981445 18.106 1.19988 16.7623 1.57786C19.1234 2.67497 21.1507 3.43582 21.1507 3.43582ZM12.5604 12.0261C16.2419 14.4805 21.1507 16.9349 21.1507 16.9349C21.1507 16.9349 26.0595 14.4805 29.741 12.0261L21.1507 13.2533L12.5604 12.0261ZM37.8957 14.8303L32.1954 19.3893L39.5659 20.3097C39.156 18.5904 38.6124 16.7165 37.8957 14.8303ZM40.2408 23.6157L33.4226 30.434H40.5832C40.7084 29.7038 40.7857 28.8988 40.7857 27.9796C40.7857 27.9796 40.6863 26.2247 40.2408 23.6157ZM2.06055 23.6157C1.61631 26.2247 1.51568 27.9796 1.51568 27.9796C1.51568 28.8975 1.59299 29.7038 1.71817 30.434H8.87881L2.06055 23.6157ZM1.9317 31.9581C1.68135 32.3005 1.52304 32.6797 1.51568 33.1117C1.47887 35.4495 2.42994 37.1651 3.86697 38.4217L10.106 39.0243L1.9317 31.9581ZM10.106 19.3893L4.40694 14.8303C3.69026 16.7165 3.14539 18.5904 2.73673 20.3109L10.106 19.3893Z" fill="#272B2B"/>
</svg>
