<svg width="514" height="595" viewBox="0 0 514 595" fill="none" xmlns="http://www.w3.org/2000/svg">
<path fill-rule="evenodd" clip-rule="evenodd" d="M170.646 8.17261C175.706 3.1108 182.57 0.266268 189.728 0.264648H405.652C427.126 0.264648 447.723 8.79501 462.907 23.9796C478.092 39.164 486.624 59.7583 486.624 81.2322V216.178C486.624 223.336 483.779 230.201 478.718 235.262C473.658 240.324 466.791 243.167 459.633 243.167C452.476 243.167 445.609 240.324 440.548 235.262C435.488 230.201 432.643 223.336 432.643 216.178V81.2322C432.643 74.0743 429.798 67.2096 424.737 62.148C419.677 57.0865 412.81 54.243 405.652 54.243H216.719V189.189C216.719 196.347 213.874 203.212 208.813 208.273C203.752 213.335 196.886 216.178 189.728 216.178H54.7753V513.061C54.7753 520.219 57.619 527.082 62.6805 532.143C67.7423 537.206 74.6074 540.049 81.7658 540.049H108.756C115.915 540.049 122.78 542.893 127.842 547.954C132.903 553.015 135.747 559.881 135.747 567.039C135.747 574.197 132.903 581.061 127.842 586.121C122.78 591.185 115.915 594.027 108.756 594.027H81.7658C60.2908 594.027 39.6954 585.498 24.5102 570.313C9.32509 555.128 0.794189 534.534 0.794189 513.061V189.189C0.795809 182.032 3.64034 175.168 8.70242 170.108L170.646 8.17261ZM92.9399 162.2H162.737V92.4058L92.9399 162.2ZM351.671 371.366C351.671 361.619 353.59 351.968 357.32 342.964C361.05 333.96 366.519 325.776 373.412 318.885C380.303 311.992 388.486 306.526 397.49 302.796C406.497 299.066 416.149 297.147 425.895 297.147H486.624C493.782 297.147 500.648 299.989 505.709 305.05C510.77 310.113 513.615 316.977 513.615 324.135C513.615 331.293 510.77 338.157 505.709 343.22C500.648 348.281 493.782 351.125 486.624 351.125H425.895C420.527 351.125 415.377 353.258 411.582 357.053C407.785 360.85 405.652 365.997 405.652 371.366C405.652 376.734 407.785 381.884 411.582 385.679C415.377 389.476 420.527 391.609 425.895 391.609H439.391C459.075 391.609 477.955 399.428 491.874 413.347C505.795 427.266 513.615 446.143 513.615 465.827C513.615 485.514 505.795 504.391 491.874 518.31C477.955 532.229 459.075 540.049 439.391 540.049H378.662C371.504 540.049 364.638 537.206 359.577 532.143C354.516 527.082 351.671 520.219 351.671 513.061C351.671 505.903 354.516 499.036 359.577 493.976C364.638 488.915 371.504 486.07 378.662 486.07H439.391C444.759 486.07 449.909 483.938 453.704 480.14C457.501 476.345 459.633 471.196 459.633 465.827C459.633 460.459 457.501 455.312 453.704 451.514C449.909 447.719 444.759 445.587 439.391 445.587H425.895C406.211 445.587 387.331 437.768 373.412 423.849C359.49 409.93 351.671 391.05 351.671 371.366ZM324.681 324.135C324.681 316.977 321.836 310.113 316.775 305.05C311.714 299.989 304.848 297.147 297.69 297.147C290.532 297.147 283.666 299.989 278.605 305.05C273.544 310.113 270.7 316.977 270.7 324.135V459.082C270.7 466.24 267.855 473.104 262.794 478.165C257.733 483.228 250.867 486.07 243.709 486.07C236.551 486.07 229.685 483.228 224.624 478.165C219.563 473.104 216.719 466.24 216.719 459.082V450.094C216.719 442.937 213.874 436.07 208.813 431.009C203.752 425.949 196.886 423.104 189.728 423.104C182.57 423.104 175.704 425.949 170.643 431.009C165.581 436.07 162.737 442.937 162.737 450.094V459.082C162.737 480.556 171.268 501.15 186.454 516.335C201.639 531.519 222.235 540.049 243.709 540.049C265.183 540.049 285.779 531.519 300.964 516.335C316.149 501.15 324.681 480.556 324.681 459.082V324.135Z" fill="black"/>
</svg>
