<svg width="67" height="71" viewBox="0 0 67 71" fill="none" xmlns="http://www.w3.org/2000/svg">
<path d="M61.7235 43.5343C61.7235 58.404 49.6693 70.4582 34.7996 70.4582C19.9299 70.4582 7.87567 58.404 7.87567 43.5343C7.87567 28.6646 19.9299 16.6104 34.7996 16.6104C49.6693 16.6104 61.7235 28.6646 61.7235 43.5343Z" fill="#5D4CD3"/>
<path d="M24.3549 46.4889L18.7897 41.058L54.1352 2.38284L65.7424 0.830078L63.7799 12.1941L24.3549 46.4889Z" fill="#5D4CD3"/>
<path d="M28.2537 55.7723C27.8005 58.8086 26.4977 58.9523 25.3597 56.0921C25.3597 56.0921 24.448 53.8016 17.8742 47.386C11.3003 40.9707 8.95274 40.0809 8.95274 40.0809C6.02192 38.9698 6.16973 37.6983 9.28068 37.2555C9.28068 37.2555 16.1007 36.285 22.6739 42.7006C29.2481 49.1162 28.2537 55.7723 28.2537 55.7723Z" fill="#5D4CD3"/>
<path d="M20.9327 40.8906L24.5268 44.3982L9.39624 59.1645L5.80216 55.6569L20.9327 40.8906Z" fill="#5D4CD3"/>
<path d="M10.772 60.5617C9.2836 62.014 7.25824 62.3929 6.24842 61.4071L3.50487 58.7296C2.49476 57.7438 2.88302 55.7675 4.37116 54.3146C5.85959 52.8623 7.88466 52.4839 8.89448 53.4697L11.638 56.1469C12.6479 57.1327 12.2602 59.1091 10.772 60.5617Z" fill="#5D4CD3"/>
<path d="M50.5386 40.9549L44.9737 46.3861L5.34396 11.8915L3.75317 0.563477L15.3976 2.47869L50.5386 40.9549Z" fill="#5D4CD3"/>
<path d="M60.0493 37.1511C63.1605 37.5933 63.3075 38.8646 60.3769 39.9751C60.3769 39.9751 58.0299 40.8646 51.4561 47.2805C44.8828 53.6958 43.9711 55.9871 43.9711 55.9871C42.8323 58.8474 41.5297 58.7031 41.0757 55.6671C41.0757 55.6671 40.081 49.0115 46.6552 42.596C53.2293 36.1798 60.0493 37.1511 60.0493 37.1511Z" fill="#5D4CD3"/>
<path d="M44.8016 44.2959L48.3957 40.7883L63.5259 55.5543L59.9318 59.0618L44.8016 44.2959Z" fill="#5D4CD3"/>
<path d="M64.9576 54.2133C66.4458 55.6656 66.834 57.6422 65.8239 58.6283L63.0801 61.3052C62.07 62.2913 60.0443 61.9127 58.5565 60.4601C57.0683 59.0078 56.6804 57.0314 57.6908 56.0457L60.434 53.3681C61.4441 52.3824 63.4692 52.7607 64.9576 54.2133Z" fill="#5D4CD3"/>
<path d="M21.8514 46.6148L16.2862 41.1839L51.6316 2.50882L63.2388 0.956055L61.2764 12.3201L21.8514 46.6148Z" fill="white"/>
<path d="M25.7501 55.8973C25.2969 58.9336 23.9941 59.0773 22.8561 56.2171C22.8561 56.2171 21.9444 53.9266 15.3706 47.511C8.79671 41.0957 6.44914 40.2059 6.44914 40.2059C3.51832 39.0948 3.66613 37.8233 6.77707 37.3805C6.77707 37.3805 13.5971 36.41 20.1703 42.8256C26.7445 49.2412 25.7501 55.8973 25.7501 55.8973Z" fill="white"/>
<path d="M18.4291 41.0166L22.0232 44.5242L6.89258 59.2905L3.2985 55.7829L18.4291 41.0166Z" fill="white"/>
<path d="M8.26849 60.6876C6.78006 62.1399 4.7547 62.5189 3.74488 61.5331L1.00133 58.8556C-0.00877793 57.8698 0.379483 55.8935 1.86762 54.4406C3.35605 52.9883 5.38112 52.6099 6.39094 53.5957L9.1345 56.2729C10.1443 57.2587 9.75663 59.235 8.26849 60.6876Z" fill="white"/>
<path d="M48.035 41.0808L42.4701 46.512L2.84035 12.0175L1.24957 0.689453L12.894 2.60467L48.035 41.0808Z" fill="white"/>
<path d="M57.5457 37.2771C60.6569 37.7193 60.8039 38.9905 57.8733 40.1011C57.8733 40.1011 55.5263 40.9906 48.9525 47.4064C42.3792 53.8217 41.4675 56.1131 41.4675 56.1131C40.3287 58.9734 39.0261 58.8291 38.5721 55.793C38.5721 55.793 37.5774 49.1375 44.1516 42.7219C50.7257 36.3058 57.5457 37.2771 57.5457 37.2771Z" fill="white"/>
<path d="M42.298 44.4219L45.892 40.9143L61.0222 55.6803L57.4281 59.1878L42.298 44.4219Z" fill="white"/>
<path d="M62.4541 54.3393C63.9422 55.7916 64.3305 57.7682 63.3204 58.7543L60.5765 61.4312C59.5664 62.4173 57.5408 62.0386 56.0529 60.5861C54.5648 59.1337 54.1768 57.1574 55.1872 56.1716L57.9305 53.4941C58.9406 52.5083 60.9656 52.8867 62.4541 54.3393Z" fill="white"/>
<path d="M58.7119 43.6827C58.7119 58.5524 46.6576 70.6066 31.7879 70.6066C16.9183 70.6066 4.86401 58.5524 4.86401 43.6827C4.86401 28.813 16.9183 16.7588 31.7879 16.7588C46.6576 16.7588 58.7119 28.813 58.7119 43.6827Z" fill="white"/>
<circle cx="31.4164" cy="43.6832" r="23.5817" fill="#5D4CD3"/>
</svg>
