<svg width="165" height="164" viewBox="0 0 165 164" fill="none" xmlns="http://www.w3.org/2000/svg">
<g id="Group 12">
<path id="Ellipse 14" d="M146.895 72.6657C146.895 108.054 118.207 136.742 82.8193 136.742C47.4311 136.742 18.7433 108.054 18.7433 72.6657C18.7433 37.2776 47.4311 8.58984 82.8193 8.58984C118.207 8.58984 146.895 37.2776 146.895 72.6657Z" fill="#166060"/>
<g id="&#240;&#159;&#166;&#134; icon &#34;battlefield&#34;">
<g id="Group">
<path id="Vector" d="M57.9622 119.003L44.7178 105.76L128.836 11.4467L156.46 7.66016L151.789 35.3725L57.9622 119.003Z" fill="#166060"/>
<path id="Vector_2" d="M67.2408 141.642C66.1623 149.046 63.0616 149.397 60.3535 142.422C60.3535 142.422 58.1837 136.836 42.5387 121.191C26.8937 105.547 21.3067 103.377 21.3067 103.377C14.3317 100.668 14.6835 97.5669 22.0872 96.487C22.0872 96.487 38.318 94.1205 53.9616 109.766C69.6073 125.411 67.2408 141.642 67.2408 141.642Z" fill="#166060"/>
<path id="Vector_3" d="M49.8177 105.353L58.3712 113.906L22.3621 149.915L13.8086 141.362L49.8177 105.353Z" fill="#166060"/>
<path id="Vector_4" d="M25.6366 153.322C22.0943 156.864 17.2742 157.788 14.8709 155.384L8.34159 148.854C5.93765 146.451 6.86167 141.631 10.4033 138.088C13.9456 134.547 18.765 133.624 21.1683 136.028L27.6976 142.556C30.1009 144.96 29.1782 149.78 25.6366 153.322Z" fill="#166060"/>
<path id="Vector_5" d="M120.276 105.509L107.033 118.753L12.7183 34.6353L8.93243 7.01074L36.6447 11.6812L120.276 105.509Z" fill="#166060"/>
<path id="Vector_6" d="M142.911 96.2334C150.315 97.3119 150.665 100.412 143.691 103.12C143.691 103.12 138.105 105.289 122.46 120.935C106.816 136.579 104.646 142.167 104.646 142.167C101.936 149.142 98.8363 148.79 97.7558 141.386C97.7558 141.386 95.3886 125.156 111.034 109.511C126.68 93.8648 142.911 96.2334 142.911 96.2334Z" fill="#166060"/>
<path id="Vector_7" d="M106.623 113.656L115.176 105.103L151.185 141.111L142.631 149.664L106.623 113.656Z" fill="#166060"/>
<path id="Vector_8" d="M154.592 137.84C158.134 141.381 159.058 146.201 156.654 148.606L150.124 155.134C147.72 157.539 142.899 156.615 139.358 153.073C135.816 149.531 134.893 144.712 137.298 142.308L143.826 135.779C146.23 133.375 151.05 134.297 154.592 137.84Z" fill="#166060"/>
</g>
<g id="Group_2">
<path id="Vector_9" d="M52.0036 119.309L38.7592 106.065L122.877 11.7524L150.501 7.96582L145.831 35.6781L52.0036 119.309Z" fill="#FFF5F5"/>
<path id="Vector_10" d="M61.2822 141.948C60.2038 149.352 57.1031 149.702 54.395 142.727C54.395 142.727 52.2251 137.142 36.5801 121.497C20.9351 105.853 15.3482 103.683 15.3482 103.683C8.37314 100.973 8.72492 97.8725 16.1286 96.7927C16.1286 96.7927 32.3595 94.4262 48.0031 110.071C63.6488 125.716 61.2822 141.948 61.2822 141.948Z" fill="#FFF5F5"/>
<path id="Vector_11" d="M43.8591 105.658L52.4126 114.212L16.4036 150.221L7.85008 141.667L43.8591 105.658Z" fill="#FFF5F5"/>
<path id="Vector_12" d="M19.678 153.628C16.1358 157.169 11.3156 158.093 8.91238 155.689L2.38303 149.16C-0.0209078 146.756 0.903108 141.937 4.44472 138.394C7.987 134.852 12.8064 133.93 15.2097 136.333L21.7391 142.862C24.1423 145.266 23.2197 150.086 19.678 153.628Z" fill="#FFF5F5"/>
<path id="Vector_13" d="M114.318 105.815L101.074 119.059L6.75969 34.9409L2.97382 7.31641L30.6861 11.9868L114.318 105.815Z" fill="#FFF5F5"/>
<path id="Vector_14" d="M136.952 96.5391C144.357 97.6175 144.706 100.718 137.732 103.426C137.732 103.426 132.146 105.595 116.501 121.24C100.858 136.885 98.6879 142.472 98.6879 142.472C95.9778 149.447 92.8778 149.096 91.7972 141.692C91.7972 141.692 89.43 125.462 105.076 109.817C120.721 94.1705 136.952 96.5391 136.952 96.5391Z" fill="#FFF5F5"/>
<path id="Vector_15" d="M100.664 113.962L109.218 105.408L145.226 141.417L136.673 149.97L100.664 113.962Z" fill="#FFF5F5"/>
<path id="Vector_16" d="M148.633 138.145C152.175 141.687 153.099 146.507 150.695 148.912L144.165 155.44C141.761 157.844 136.94 156.921 133.399 153.379C129.858 149.837 128.935 145.018 131.339 142.614L137.868 136.084C140.272 133.68 145.091 134.603 148.633 138.145Z" fill="#FFF5F5"/>
</g>
</g>
<path id="Ellipse 12" d="M139.728 73.0202C139.728 108.408 111.04 137.096 75.6517 137.096C40.2636 137.096 11.5758 108.408 11.5758 73.0202C11.5758 37.6321 40.2636 8.94434 75.6517 8.94434C111.04 8.94434 139.728 37.6321 139.728 73.0202Z" fill="#FFF5F5"/>
<circle id="Ellipse 13" cx="74.7677" cy="73.0201" r="56.1217" fill="#D574BF"/>
</g>
</svg>
