<svg width="230" height="19" viewBox="0 0 230 19" fill="none" xmlns="http://www.w3.org/2000/svg">
<g id="codekatabattle">
<path id="Vector" d="M87.8069 9.93165C87.6792 9.74602 87.6884 9.5047 87.8069 9.32835L93.023 1.9867C93.2692 1.64329 93.023 1.15137 92.6035 1.15137H89.1656C88.9924 1.15137 88.8282 1.24418 88.7279 1.39269L83.831 9.12416L83.4207 9.72746L83.831 10.34L89.0562 18.7491C89.1474 18.8976 89.3115 18.9904 89.4939 18.9904H92.9592C93.3786 18.9904 93.6157 18.517 93.3877 18.1643L87.816 9.93165H87.8069Z" fill="#43FFC0"/>
<path id="Vector_2" d="M9.71176 4.68782C11.2985 4.68782 12.7666 5.28183 13.9612 6.24711C14.2074 6.44202 14.5448 6.44202 14.7728 6.23782L16.8702 4.31656C17.1438 4.06596 17.1529 3.62973 16.8702 3.38841C15.0555 1.74559 12.8122 0.724625 9.70264 0.724625C4.03973 0.715344 0 4.74351 0 9.8576C0 14.9717 4.03973 18.9999 9.71176 18.9999C12.721 18.9999 15.0464 17.8861 16.7972 16.3268C17.0708 16.0855 17.0617 15.6492 16.7972 15.3986L14.7728 13.4959C14.5448 13.2825 14.1983 13.2825 13.9521 13.4774C12.7575 14.4334 11.2985 15.0274 9.71176 15.0274C6.51098 15.0274 4.44096 12.7441 4.44096 9.8576C4.44096 6.97106 6.51098 4.68782 9.71176 4.68782Z" fill="white"/>
<path id="Vector_3" d="M28.4331 0.715332C22.761 0.715332 18.7852 4.74349 18.7852 9.85759C18.7852 14.9717 22.761 18.9998 28.4331 18.9998C34.1051 18.9998 38.081 14.9717 38.081 9.85759C38.081 4.74349 34.0686 0.715332 28.4331 0.715332ZM28.4331 15.0274C25.2414 15.0274 23.2352 12.7441 23.2352 9.85759C23.2352 6.97105 25.2414 4.68781 28.4331 4.68781C31.6247 4.68781 33.6218 6.97105 33.6218 9.85759C33.6218 12.7441 31.6065 15.0274 28.4331 15.0274Z" fill="white"/>
<path id="Vector_4" d="M47.3735 1.28125H41.9112C41.4826 1.28125 41.127 1.63395 41.127 2.07946V17.6352C41.127 18.0714 41.4735 18.4334 41.9112 18.4334H47.3735C53.1002 18.4334 56.7387 14.4053 56.7387 9.82949C56.7387 5.00312 52.6534 1.28125 47.3735 1.28125ZM47.2732 14.6002H46.3066C45.878 14.6002 45.5223 14.2475 45.5223 13.802V5.88486C45.5223 5.44863 45.8688 5.08666 46.3066 5.08666H47.2732C50.3463 5.08666 52.2339 7.17499 52.2339 9.82949C52.2339 12.716 50.091 14.6002 47.2732 14.6002Z" fill="white"/>
<path id="Vector_5" d="M71.3747 14.8322H64.6449C64.3531 14.8322 64.116 14.5909 64.116 14.2939V12.2891C64.116 11.9921 64.3531 11.7508 64.6449 11.7508H70.4902C70.782 11.7508 71.0191 11.5094 71.0191 11.2124V8.64146C71.0191 8.34446 70.782 8.10314 70.4902 8.10314H64.6449C64.3531 8.10314 64.116 7.86182 64.116 7.56481V5.56929C64.116 5.27229 64.3531 5.03097 64.6449 5.03097H71.0464C71.3383 5.03097 71.5753 4.78965 71.5753 4.49264V1.81958C71.5753 1.52257 71.3383 1.28125 71.0464 1.28125H60.2586C59.9668 1.28125 59.7297 1.52257 59.7297 1.81958V17.8858C59.7297 18.1828 59.9668 18.4241 60.2586 18.4241H71.3747C71.6665 18.4241 71.9036 18.1828 71.9036 17.8858V15.3705C71.9036 15.0735 71.6665 14.8322 71.3747 14.8322Z" fill="white"/>
<path id="Vector_6" d="M104.541 0.715332H103.756L95.3122 17.8861C95.1846 18.1367 95.3669 18.4337 95.6496 18.4337H99.5343C99.6802 18.4337 99.8079 18.3501 99.8717 18.2202L100.519 16.8744C100.583 16.7444 100.711 16.6609 100.857 16.6609H107.477C107.614 16.6609 107.741 16.7444 107.805 16.8651L108.498 18.2295C108.562 18.3594 108.69 18.4337 108.827 18.4337H112.711C112.994 18.4337 113.167 18.1367 113.049 17.8861L104.541 0.715332ZM105.617 13.663H102.598C102.325 13.663 102.142 13.366 102.261 13.1154L104.094 9.31926H104.149L105.954 13.1154C106.073 13.366 105.89 13.663 105.617 13.663Z" fill="white"/>
<path id="Vector_7" d="M124.192 4.51121V1.77317C124.192 1.49472 123.973 1.28125 123.709 1.28125H112.191C111.918 1.28125 111.708 1.50401 111.708 1.77317V4.50192C111.708 4.78037 111.927 4.99384 112.191 4.99384H115.228C115.502 4.99384 115.711 5.2166 115.711 5.48576V17.9229C115.711 18.1921 115.93 18.4149 116.195 18.4149H119.632C119.906 18.4149 120.116 18.1921 120.116 17.9229V5.49504C120.116 5.22588 120.335 5.00312 120.599 5.00312H123.69C123.964 5.00312 124.174 4.78037 124.174 4.51121H124.192Z" fill="white"/>
<path id="Vector_8" d="M132.071 0.715332H131.296L122.97 17.6633C122.797 18.016 123.052 18.4337 123.435 18.4337H126.964C127.165 18.4337 127.347 18.3223 127.43 18.1367L128.004 16.9579C128.095 16.7723 128.278 16.6609 128.469 16.6609H134.898C135.099 16.6609 135.272 16.7723 135.363 16.9486L135.965 18.146C136.056 18.3223 136.239 18.4337 136.43 18.4337H139.986C140.379 18.4337 140.634 18.016 140.452 17.6633L132.071 0.715332ZM132.91 13.663H130.375C129.983 13.663 129.737 13.2453 129.901 12.8926L131.624 9.31926H131.688L133.384 12.9019C133.548 13.2546 133.302 13.663 132.91 13.663Z" fill="white"/>
<path id="Vector_9" d="M155.753 9.66243V9.59746C157.021 8.68787 157.705 7.68547 157.705 6.08906C157.705 3.39743 155.306 1.28125 152.324 1.28125H145.604C145.321 1.28125 145.093 1.51329 145.093 1.80101V17.9137C145.093 18.2014 145.321 18.4334 145.604 18.4334H153.008C156.41 18.4334 158.398 16.2616 158.398 13.8855C158.398 12.1127 157.604 10.9154 155.753 9.66243ZM149.461 5.45792C149.461 5.17019 149.689 4.93815 149.972 4.93815H151.558C152.561 4.93815 153.282 5.62498 153.282 6.516C153.282 7.45343 152.561 8.11242 151.558 8.11242H149.972C149.689 8.11242 149.461 7.88038 149.461 7.59266V5.45792ZM152.115 14.6837H149.972C149.689 14.6837 149.461 14.4517 149.461 14.1639V12.2056C149.461 11.9178 149.689 11.6858 149.972 11.6858H152.115C153.136 11.6858 153.793 12.3726 153.793 13.1987C153.793 14.1175 153.136 14.6837 152.115 14.6837Z" fill="white"/>
<path id="Vector_10" d="M168.164 0.715332H167.371L159.082 17.5612C158.881 17.9603 159.173 18.4337 159.611 18.4337H163.021C163.249 18.4337 163.45 18.3037 163.55 18.0995L164.079 16.995C164.179 16.7909 164.38 16.6609 164.608 16.6609H170.955C171.174 16.6609 171.383 16.7909 171.484 16.9858L172.049 18.1088C172.149 18.313 172.35 18.4337 172.578 18.4337H175.97C176.408 18.4337 176.7 17.9603 176.499 17.5612L168.164 0.715332ZM168.885 13.663H166.559C166.122 13.663 165.839 13.1989 166.03 12.7998L167.708 9.31926H167.763L169.414 12.7998C169.605 13.1989 169.313 13.663 168.885 13.663Z" fill="white"/>
<path id="Vector_11" d="M187.359 1.28125H175.778C175.532 1.28125 175.322 1.48544 175.322 1.74532V4.54833C175.322 4.79893 175.523 5.0124 175.778 5.0124H178.879C179.125 5.0124 179.335 5.2166 179.335 5.47648V17.9879C179.335 18.2385 179.535 18.452 179.791 18.452H183.292C183.539 18.452 183.748 18.2478 183.748 17.9879V5.4672C183.748 5.2166 183.949 5.00312 184.204 5.00312H187.378C187.624 5.00312 187.834 4.79893 187.834 4.53905V1.74532C187.834 1.49472 187.633 1.28125 187.378 1.28125H187.359Z" fill="white"/>
<path id="Vector_12" d="M201.056 1.28125H189.448C189.211 1.28125 189.01 1.47616 189.01 1.72676V4.55761C189.01 4.79893 189.202 5.00312 189.448 5.00312H192.576C192.813 5.00312 193.014 5.19803 193.014 5.44863V17.9879C193.014 18.2292 193.205 18.4334 193.451 18.4334H196.98C197.217 18.4334 197.418 18.2385 197.418 17.9879V5.44863C197.418 5.20732 197.609 5.00312 197.856 5.00312H201.056C201.294 5.00312 201.494 4.80821 201.494 4.55761V1.72676C201.494 1.48544 201.303 1.28125 201.056 1.28125Z" fill="white"/>
<path id="Vector_13" d="M215.2 14.8322H208.415C208.133 14.8322 207.914 14.6002 207.914 14.3217V1.79173C207.914 1.50401 207.686 1.28125 207.412 1.28125H204.047C203.764 1.28125 203.546 1.51329 203.546 1.79173V17.9137C203.546 18.2014 203.774 18.4241 204.047 18.4241H215.209C215.492 18.4241 215.71 18.1921 215.71 17.9137V15.3427C215.71 15.055 215.482 14.8322 215.209 14.8322H215.2Z" fill="white"/>
<path id="Vector_14" d="M229.343 14.8322H222.878C222.513 14.8322 222.221 14.5352 222.221 14.1639V12.4097C222.221 12.0385 222.513 11.7415 222.878 11.7415H228.45C228.814 11.7415 229.106 11.4445 229.106 11.0732V8.75284C229.106 8.38158 228.814 8.08457 228.45 8.08457H222.878C222.513 8.08457 222.221 7.78757 222.221 7.41631V5.67139C222.221 5.30013 222.513 5.00312 222.878 5.00312H229.015C229.38 5.00312 229.672 4.70612 229.672 4.33486V1.94952C229.672 1.57826 229.38 1.28125 229.015 1.28125H218.473C218.109 1.28125 217.817 1.57826 217.817 1.94952V17.7652C217.817 18.1364 218.109 18.4334 218.473 18.4334H229.343C229.708 18.4334 230 18.1364 230 17.7652V15.5005C230 15.1292 229.708 14.8322 229.343 14.8322Z" fill="white"/>
<path id="Vector_15" d="M81.8977 1.69018C81.8977 1.40245 81.6698 1.16113 81.378 1.16113H77.8215C77.5389 1.16113 77.3018 1.39317 77.3018 1.69018V18.4711C77.3018 18.601 77.3565 18.7124 77.4294 18.8052L77.3018 19.0001H81.8977L81.916 11.7884L81.8977 11.8163V1.69018Z" fill="#43FFC0"/>
</g>
</svg>
