<svg width="318" height="165" viewBox="0 0 318 165" fill="none" xmlns="http://www.w3.org/2000/svg">
<path d="M249.093 82.0463C249.093 127.359 212.359 164.092 167.046 164.092C121.733 164.092 85 127.359 85 82.0463C85 36.7334 121.733 0 167.046 0C212.359 0 249.093 36.7334 249.093 82.0463Z" fill="#5D4CD3"/>
<path d="M239.915 82.4994C239.915 127.812 203.181 164.546 157.869 164.546C112.556 164.546 75.8223 127.812 75.8223 82.4994C75.8223 37.1865 112.556 0.453125 157.869 0.453125C203.181 0.453125 239.915 37.1865 239.915 82.4994Z" fill="white"/>
<circle cx="156.737" cy="82.4999" r="71.8612" fill="#FF55D7"/>
<path d="M39.6684 60.4318C56.9045 56.387 70.6533 55.9565 79.6163 55.9107C81.2732 55.9023 82.6121 57.2484 82.6121 58.9053V96.2004C82.6121 97.9606 81.1041 99.3351 79.3472 99.2281C71.6077 98.7569 62.9163 99.1613 49.8584 103.436C35.5368 108.123 27.6435 112.876 20.3266 118.009C18.0573 119.6 15.0197 117.584 15.651 114.885L16.6909 110.439C16.7241 110.297 16.7676 110.157 16.8211 110.022L22.4168 95.8267C23.0759 94.1548 22.1272 92.2825 20.3892 91.8252L4.49754 87.6438C2.38955 87.0892 1.57191 84.5563 3.0724 82.9753C12.3066 73.2451 27.0629 63.3899 39.6684 60.4318Z" fill="white"/>
<path d="M278.332 60.4318C261.096 56.387 247.347 55.9565 238.384 55.9107C236.727 55.9023 235.388 57.2484 235.388 58.9053V96.2004C235.388 97.9606 236.896 99.3351 238.653 99.2281C246.392 98.7569 255.084 99.1613 268.142 103.436C282.463 108.123 290.356 112.876 297.673 118.009C299.943 119.6 302.98 117.584 302.349 114.885L301.309 110.439C301.276 110.297 301.232 110.157 301.179 110.022L295.583 95.8267C294.924 94.1548 295.873 92.2825 297.611 91.8252L313.502 87.6438C315.61 87.0892 316.428 84.5563 314.928 82.9753C305.693 73.2451 290.937 63.3899 278.332 60.4318Z" fill="white"/>
</svg>
