<svg width="111" height="89" viewBox="0 0 111 89" fill="none" xmlns="http://www.w3.org/2000/svg">
<g id="&#240;&#159;&#166;&#134; icon &#34;Chalkboard Teacher&#34;">
<path id="Vector" d="M36.0752 61.0499C35.6607 61.0499 35.2462 61.1106 34.8507 61.2389C32.603 61.9691 30.239 62.4373 27.7502 62.4373C25.2614 62.4373 22.8974 61.9691 20.648 61.2389C20.2525 61.1106 19.8397 61.0499 19.4252 61.0499C8.66173 61.0499 -0.0569541 69.805 0.000280184 80.5823C0.0245614 85.1368 3.76907 88.7998 8.32526 88.7998H47.1752C51.7314 88.7998 55.4759 85.1368 55.5001 80.5823C55.5574 69.805 46.8387 61.0499 36.0752 61.0499ZM27.7502 55.4999C36.9458 55.4999 44.4002 48.0455 44.4002 38.8499C44.4002 29.6543 36.9458 22.1999 27.7502 22.1999C18.5546 22.1999 11.1003 29.6543 11.1003 38.8499C11.1003 48.0455 18.5546 55.4999 27.7502 55.4999ZM102.675 0H36.0752C31.4843 0 27.7502 3.85897 27.7502 8.60074V16.65C31.8121 16.65 35.5722 17.8259 38.8502 19.7371V11.1H99.9V61.0499H88.8001V49.9499H66.6001V61.0499H53.3773C56.6899 63.9445 59.1215 67.7671 60.261 72.1498H102.675C107.266 72.1498 111 68.2908 111 63.5491V8.60074C111 3.85897 107.266 0 102.675 0Z" fill="#332786"/>
</g>
</svg>
