<svg width="27" height="27" viewBox="0 0 27 27" fill="none" xmlns="http://www.w3.org/2000/svg">
<path d="M9.46903 25.248V17.52H2.02903C1.67703 17.52 1.37303 17.392 1.11703 17.136C0.861026 16.88 0.733026 16.576 0.733026 16.224V10.992C0.733026 10.64 0.861026 10.336 1.11703 10.08C1.37303 9.824 1.67703 9.696 2.02903 9.696H9.46903V2.208C9.46903 1.856 9.59703 1.552 9.85303 1.296C10.109 1.04 10.413 0.912 10.765 0.912H16.621C16.973 0.912 17.277 1.04 17.533 1.296C17.789 1.552 17.917 1.856 17.917 2.208V9.696H25.261C25.613 9.696 25.917 9.824 26.173 10.08C26.429 10.336 26.557 10.64 26.557 10.992V16.224C26.557 16.576 26.429 16.88 26.173 17.136C25.917 17.392 25.613 17.52 25.261 17.52H17.917V25.248C17.917 25.6 17.789 25.904 17.533 26.16C17.277 26.416 16.973 26.544 16.621 26.544H10.765C10.413 26.544 10.109 26.416 9.85303 26.16C9.59703 25.904 9.46903 25.6 9.46903 25.248Z" fill="currentColor"/>
</svg>
