<svg width="43" height="37" viewBox="0 0 43 37" fill="none" xmlns="http://www.w3.org/2000/svg">
<path d="M39.6124 15.7242H8.64352L18.1222 4.33936C18.5654 3.80611 18.7787 3.11863 18.715 2.42816C18.6513 1.73768 18.316 1.10078 17.7827 0.657558C17.2495 0.214336 16.562 0.00109976 15.8715 0.0647603C15.1811 0.128421 14.5442 0.463763 14.1009 0.997015L1.04491 16.6643C0.957074 16.7889 0.878525 16.9198 0.809904 17.0559C0.809904 17.1865 0.809905 17.2648 0.627121 17.3954C0.508764 17.6948 0.446793 18.0135 0.444336 18.3354C0.446793 18.6574 0.508764 18.9761 0.627121 19.2755C0.627121 19.406 0.62712 19.4844 0.809904 19.6149C0.878525 19.7511 0.957074 19.882 1.04491 20.0066L14.1009 35.6738C14.3465 35.9686 14.6539 36.2056 15.0014 36.3681C15.3489 36.5306 15.728 36.6145 16.1116 36.6139C16.7217 36.6151 17.313 36.4026 17.7827 36.0133C18.0472 35.7941 18.2657 35.5249 18.4259 35.2211C18.5861 34.9172 18.6848 34.5848 18.7163 34.2428C18.7479 33.9008 18.7116 33.5559 18.6097 33.228C18.5077 32.9 18.3421 32.5953 18.1222 32.3315L8.64352 20.9466H39.6124C40.305 20.9466 40.9691 20.6715 41.4588 20.1818C41.9485 19.6921 42.2236 19.028 42.2236 18.3354C42.2236 17.6429 41.9485 16.9787 41.4588 16.489C40.9691 15.9993 40.305 15.7242 39.6124 15.7242Z" fill="currentColor"/>
</svg>
