<svg width="13" height="14" viewBox="0 0 13 14" fill="none" xmlns="http://www.w3.org/2000/svg">
<path d="M10.5516 6.95844C9.70121 4.80164 6.67329 4.68535 7.40454 1.55059C7.45871 1.31799 7.20413 1.13826 6.99829 1.25985C5.03204 2.39111 3.61829 4.65891 4.80454 7.6298C4.90204 7.87296 4.60954 8.10027 4.39829 7.94169C3.41788 7.21747 3.31496 6.17607 3.40163 5.43071C3.43413 5.15582 3.06579 5.02367 2.90871 5.25098C2.54038 5.80075 2.16663 6.68884 2.16663 8.02627C2.37246 10.9866 4.93454 11.8958 5.85538 12.0121C7.17163 12.176 8.59621 11.9381 9.61996 11.0236C10.7466 10.0033 11.1583 8.37516 10.5516 6.95844ZM5.52496 9.61743C6.30496 9.43241 6.70579 8.88264 6.81413 8.3963C6.99288 7.64037 6.29413 6.90029 6.76538 5.7056C6.94413 6.69413 8.53663 7.31262 8.53663 8.39102C8.57996 9.72844 7.09579 10.8756 5.52496 9.61743Z" fill="#FF55D7"/>
<path d="M10.5516 6.95844C9.70121 4.80164 6.67329 4.68535 7.40454 1.55059C7.45871 1.31799 7.20413 1.13826 6.99829 1.25985C5.03204 2.39111 3.61829 4.65891 4.80454 7.6298C4.90204 7.87296 4.60954 8.10027 4.39829 7.94169C3.41788 7.21747 3.31496 6.17607 3.40163 5.43071C3.43413 5.15582 3.06579 5.02367 2.90871 5.25098C2.54038 5.80075 2.16663 6.68884 2.16663 8.02627C2.37246 10.9866 4.93454 11.8958 5.85538 12.0121C7.17163 12.176 8.59621 11.9381 9.61996 11.0236C10.7466 10.0033 11.1583 8.37516 10.5516 6.95844ZM5.52496 9.61743C6.30496 9.43241 6.70579 8.88264 6.81413 8.3963C6.99288 7.64037 6.29413 6.90029 6.76538 5.7056C6.94413 6.69413 8.53663 7.31262 8.53663 8.39102C8.57996 9.72844 7.09579 10.8756 5.52496 9.61743Z" fill="#FF55D7"/>
</svg>
