<svg width="19" height="21" viewBox="0 0 19 21" fill="none" xmlns="http://www.w3.org/2000/svg">
<g id="&#240;&#159;&#166;&#134; icon &#34;students&#34;">
<g id="Group">
<path id="Vector" fill-rule="evenodd" clip-rule="evenodd" d="M0 13.3731C0 12.5494 0.682373 11.805 1.51364 11.7116L6.49091 11.1523L11.4682 11.7116C12.3041 11.8056 12.9818 12.5494 12.9818 13.3731V15.9806H0V13.3731Z" fill="#FF55D7"/>
<path id="Vector_2" fill-rule="evenodd" clip-rule="evenodd" d="M2.29089 3.68359H10.6909V9.27577C10.6909 9.89162 10.1781 10.3909 9.54491 10.3909H3.43688C2.80397 10.3909 2.29089 9.88673 2.29089 9.27577V3.68359Z" fill="#BAAFFF"/>
<path id="Vector_3" fill-rule="evenodd" clip-rule="evenodd" d="M4.19998 9.72826C3.05063 8.99691 2.29089 7.73116 2.29089 6.29225C2.29089 4.02849 4.1713 2.19336 6.49089 2.19336C8.81049 2.19336 10.6909 4.02849 10.6909 6.29225C10.6909 7.73116 9.93115 8.99691 8.7818 9.72826V11.8816C8.7818 11.8816 7.22879 12.4214 6.49089 12.4214C5.753 12.4214 4.19998 11.8816 4.19998 11.8816V9.72826Z" fill="#BAAFFF"/>
<path id="Vector_4" fill-rule="evenodd" clip-rule="evenodd" d="M2.29089 2.19321C2.29089 1.16423 3.14476 0.330078 4.20074 0.330078H11.4545V2.19321C11.4545 3.22219 10.6007 4.05634 9.54469 4.05634H2.29089V2.19321Z" fill="#BAAFFF"/>
<path id="Vector_5" fill-rule="evenodd" clip-rule="evenodd" d="M5.72754 18.2169C5.72754 17.3932 6.40991 16.6488 7.24118 16.5554L12.2184 15.9961L17.1957 16.5554C18.0317 16.6493 18.7094 17.3932 18.7094 18.2169V20.8244H5.72754V18.2169Z" fill="#B4FFE6"/>
<path id="Vector_6" fill-rule="evenodd" clip-rule="evenodd" d="M9.92679 14.572C8.77744 13.8407 8.0177 12.5749 8.0177 11.136C8.0177 8.87224 9.8981 7.03711 12.2177 7.03711C14.5373 7.03711 16.4177 8.87224 16.4177 11.136C16.4177 12.5749 15.658 13.8407 14.5086 14.572V16.7254C14.5086 16.7254 12.9556 17.2652 12.2177 17.2652C11.4798 17.2652 9.92679 16.7254 9.92679 16.7254V14.572Z" fill="#BAAFFF"/>
<path id="Vector_7" fill-rule="evenodd" clip-rule="evenodd" d="M8.0177 7.03696C8.0177 6.00798 8.87156 5.17383 9.92754 5.17383H17.1813V7.03696C17.1813 8.06594 16.3275 8.90009 15.2715 8.90009H8.0177V7.03696Z" fill="#FF55D7"/>
</g>
</g>
</svg>
