<svg width="39" height="39" viewBox="0 0 39 39" fill="none" xmlns="http://www.w3.org/2000/svg">
<path d="M38.9998 0.963772C39.0097 0.498001 38.6393 0.112851 38.1727 0.102993L33.2324 0.000192656C32.7658 -0.00966494 32.3799 0.359995 32.37 0.825766L32.3185 3.29122C32.3185 3.30249 32.3087 3.7665 32.2935 4.49842C32.2871 4.80084 31.9351 4.96384 31.7002 4.77303C31.3768 4.51039 31.034 4.24635 30.6721 3.98442C29.0994 2.84657 27.4353 1.94988 25.7254 1.31865C23.5782 0.525814 21.3544 0.150169 19.115 0.202273C16.6077 0.260363 14.0227 0.868365 11.6391 1.96045C9.29926 3.03246 7.12307 4.58433 5.34579 6.44847C1.76972 10.1993 -0.126422 15.051 0.00654756 20.109C0.144808 25.3687 2.46984 30.2422 6.5531 33.8322C8.36494 35.4252 10.424 36.6887 12.6732 37.5875C14.8861 38.4723 17.2305 38.9595 19.4536 38.9975C19.5478 38.9993 19.6416 39 19.7361 39C22.0005 39 24.3633 38.5409 26.5878 37.6664C29.1213 36.6708 31.4364 35.14 33.2825 33.2396C34.9405 31.5329 36.2469 29.5247 37.1654 27.2719L38.0965 24.9878C38.2725 24.5565 38.0644 24.0643 37.6324 23.889L33.0553 22.0305C32.6233 21.8552 32.1302 22.0625 31.9545 22.4938L31.0234 24.778C30.427 26.2411 29.5854 27.5377 28.5224 28.6326C25.7744 31.4614 22.094 32.4225 19.5665 32.3803C14.2798 32.2905 6.84479 27.9158 6.63528 19.9358C6.54887 16.6486 7.79709 13.479 10.1496 11.0115C12.5798 8.46294 15.989 6.89558 19.2699 6.81953C23.0681 6.73117 26.0943 8.65129 27.9781 10.2961C28.2095 10.4982 28.048 10.8777 27.7415 10.852C26.4481 10.7436 25.4831 10.6376 24.7798 10.5471L22.3296 10.2313C21.8668 10.1718 21.4432 10.4978 21.3836 10.9597L20.7509 15.8512C20.6913 16.3131 21.0179 16.7359 21.4806 16.7954L23.9309 17.1112C25.7487 17.3453 29.1421 17.6724 34.9871 17.9002C35.0696 17.9033 35.1349 17.9058 35.1807 17.9079C35.2608 17.9139 35.3409 17.9167 35.4209 17.9167C36.7376 17.9167 37.9833 17.1285 38.5011 15.8332C38.6623 15.4305 38.7385 15.0147 38.7381 14.606C38.7381 14.5651 38.7374 14.5243 38.7356 14.4835C38.7399 13.6403 38.8668 7.32966 38.9483 3.42993L38.9998 0.964476V0.963772Z" fill="#BAAFFF"/>
</svg>
