<svg width="81" height="93" viewBox="0 0 81 93" fill="none" xmlns="http://www.w3.org/2000/svg">
<g id="&#240;&#159;&#166;&#134; icon &#34;User Graduate&#34;">
<path id="Vector" d="M57.7487 57.9701L40.5 75.2188L23.2513 57.9701C10.3239 58.5306 0 69.1077 0 82.1617V83.8974C0 88.6887 3.88728 92.576 8.67857 92.576H72.3214C77.1127 92.576 81 88.6887 81 83.8974V82.1617C81 69.1077 70.6761 58.5306 57.7487 57.9701ZM2.45893 14.4326L3.61607 14.7039V25.2628C2.35045 26.0222 1.44643 27.342 1.44643 28.9331C1.44643 30.4518 2.27813 31.7175 3.45335 32.4949L0.632812 43.759C0.325446 45.0065 1.0125 46.2902 2.00692 46.2902H9.56451C10.5589 46.2902 11.246 45.0065 10.9386 43.759L8.11808 32.4949C9.2933 31.7175 10.125 30.4518 10.125 28.9331C10.125 27.342 9.22098 26.0222 7.95536 25.2628V15.7525L19.8884 18.6273C18.3335 21.7371 17.3571 25.2085 17.3571 28.9331C17.3571 41.7159 27.7172 52.076 40.5 52.076C53.2828 52.076 63.6429 41.7159 63.6429 28.9331C63.6429 25.2085 62.6846 21.7371 61.1116 18.6273L78.523 14.4326C81.8136 13.6371 81.8136 9.53287 78.523 8.73733L44.098 0.420368C41.7475 -0.140123 39.2705 -0.140123 36.9201 0.420368L2.45893 8.71925C-0.813616 9.51479 -0.813616 13.6371 2.45893 14.4326Z" fill="#332786"/>
</g>
</svg>
