<svg width="76" height="71" viewBox="0 0 76 71" fill="none" xmlns="http://www.w3.org/2000/svg">
<path d="M37.1381 1.50723C46.5218 1.6456 47.4526 3.77768 50.2011 3.85316C54.1759 3.96637 60.2514 -3.67519 68.4842 3.23051C76.5974 10.0356 69.9873 20.7149 69.9873 20.7149C69.9873 20.7149 74.5031 28.7149 75.0314 40.9037C75.415 49.7277 72.0188 60.7089 56.7923 66.9353C42.7733 72.6712 21.855 71.5265 9.06873 61.7089C-0.843276 54.105 -0.145158 43.0106 0.125284 39.2307C0.83598 29.3124 5.16934 21.3438 5.16934 21.3438C5.16934 21.3438 -1.2395 8.6708 6.58444 2.66447C15.1757 -3.93305 21.2889 3.83429 24.8235 3.55127C27.3959 3.33743 28.2387 1.37515 37.1381 1.50723Z" fill="#855B52"/>
<path d="M19.9608 8.32566C19.8413 7.62754 15.2878 3.11179 10.5771 7.70301C6.94811 11.2439 10.5771 17.4012 11.1997 16.9106C11.6777 16.5333 13.4387 14.2628 15.4953 12.3068C17.6023 10.3005 20.0048 8.5961 19.9608 8.32566Z" fill="#C8926D"/>
<path d="M55.5101 8.36897C55.4786 8.75891 57.9063 10.2243 60.1139 12.3061C62.3466 14.413 64.3592 17.13 64.7177 17.086C65.4284 16.998 68.4787 11.0231 64.4975 7.65827C60.5164 4.29347 55.5981 7.21802 55.5101 8.36897Z" fill="#C8926D"/>
<path d="M37.9053 33.2363C47.1129 33.2363 52.6349 43.6263 52.3079 50.1169C52.0123 56.0226 48.6475 60.922 37.3141 60.8591C25.9807 60.8025 23.1064 55.6012 22.9115 50.054C22.7354 45.098 26.2763 33.2363 37.9053 33.2363Z" fill="#F2A258"/>
<path d="M55.773 32.8089C55.9806 35.4252 54.5781 37.8089 51.8925 37.6076C49.3013 37.4064 47.4082 35.3057 47.4082 32.6768C47.4082 30.0478 48.8044 28.1862 50.9051 27.8969C53.4711 27.5384 55.4774 29.0919 55.773 32.8089Z" fill="#231E51"/>
<path d="M44.2205 43.6838C44.0066 46.3001 42.2708 49.0989 37.2267 48.9228C32.994 48.7719 31.0003 45.9542 30.9374 43.3316C30.8493 39.6271 32.8242 38.2624 37.6104 38.1932C43.0695 38.124 44.5161 40.0863 44.2205 43.6838Z" fill="#231E51"/>
<path d="M27.7553 33.7844C27.4848 36.3945 25.032 38.2247 22.7364 37.665C20.2144 37.0486 19.0823 34.3945 19.6106 31.8222C20.0823 29.5203 22.1012 27.7278 24.3905 27.9857C26.7804 28.2498 28.0949 30.4951 27.7553 33.7844Z" fill="#231E51"/>
<path d="M37.5782 55.0362C41.031 55.0362 42.9178 53.1306 43.4524 52.6023C43.987 52.0739 44.704 51.1683 45.8109 52.074C46.7543 52.8413 45.8235 54.0362 45.3958 54.4953C44.6285 55.3193 42.314 57.835 37.2637 57.6086C32.3077 57.3884 30.402 55.1432 29.8674 54.6148C29.3391 54.0865 28.4523 52.728 29.4523 51.9607C30.6536 51.0425 31.0435 52.0802 32.2825 53.0802C33.5215 54.0803 34.3014 55.0362 37.5782 55.0362Z" fill="#231E51"/>
</svg>
