<svg width="91" height="87" viewBox="0 0 91 87" fill="none" xmlns="http://www.w3.org/2000/svg">
<path d="M45.0816 52.1271C30.9315 56.892 26.246 46.213 25.1515 46.5386C23.1596 47.0517 22.0055 44.7739 23.4155 43.6397C29.6175 38.8562 11.0779 34.2043 11.0779 34.2043C15.0511 28.3364 27.5029 7.71501 38.3993 6.6978C49.2957 5.68059 53.3487 6.22238 58.2306 10.886C64.5525 17.1864 58.1076 47.8554 45.0816 52.1271Z" fill="white"/>
<path d="M12.5627 72.8393C19.121 77.7986 30.0867 78.3493 35.8052 71.4062C38.0137 68.6843 34.3158 69.0694 31.9291 66.92C29.5424 64.7706 29.1278 61.2403 26.9488 63.7947C25.4206 65.5995 22.5213 64.3968 20.8545 63.0658C18.744 61.3108 17.3433 58.471 17.3725 55.3647C17.2437 51.1935 19.2449 46.7064 23.0112 42.012C25.2197 39.29 25.0023 35.6217 22.6156 33.4723C20.2289 31.3229 14.3909 30.1207 12.1824 32.8426C-2.96175 51.0878 5.53098 67.6238 12.5627 72.8393Z" fill="white"/>
<path d="M85.2545 41.925C82.062 60.0305 69.756 65.1205 56.0093 62.6966C42.2625 60.2727 42.5962 48.5773 45.0497 34.6629C47.5031 20.7485 51.1305 9.97968 64.8773 12.4036C78.624 14.8275 88.447 23.8195 85.2545 41.925Z" fill="#9642AB"/>
<path d="M84.0422 39.9825C80.9384 57.585 68.8297 62.537 55.4182 60.1722C42.0067 57.8074 41.443 46.2996 43.8079 32.8881C44.9903 26.1824 44.5254 16.0748 47.5029 11.9327C47.5029 11.9327 57.3736 9.87032 64.0793 11.0527C77.4612 13.5852 87.146 22.3799 84.0422 39.9825Z" fill="white"/>
<path d="M78.4989 40.0419C76.1341 53.4534 67.5061 57.2906 58.1181 55.6352C43.5331 53.0635 53.2848 45.7945 55.1175 35.4006C56.9502 25.0067 56.4659 16.97 64.6804 18.4184C74.2361 20.1033 80.8637 26.6305 78.4989 40.0419Z" fill="#DC8B9F"/>
<path d="M33.1664 27.5553C35.4345 27.4366 37.4069 28.9944 37.5256 31.2625C37.8414 33.3924 36.116 35.3353 34.0156 35.4835C31.7476 35.6022 29.7751 34.0444 29.6565 31.7763C29.3702 29.4787 31.066 27.7035 33.1664 27.5553Z" fill="#3E4347"/>
<path d="M27.3019 44.1521C26.1082 40.1388 29.8744 35.4443 35.5148 33.846C41.1551 32.2478 46.6776 34.2587 47.8714 38.272C49.0652 42.2853 45.2989 46.9797 39.6585 48.578C33.821 50.3144 28.2985 48.3035 27.3019 44.1521Z" fill="white"/>
</svg>
