<svg width="72" height="66" viewBox="0 0 72 66" fill="none" xmlns="http://www.w3.org/2000/svg">
<path d="M68.1525 24.2159C68.9238 23.4764 69.6134 22.6313 70.1835 21.6646C73.544 15.9761 70.7216 1.15092 69.0035 0.138386C67.6183 -0.680807 57.9833 2.23121 52.5679 6.38099C47.5889 3.39722 41.9184 1.63526 35.8771 1.63526C29.8557 1.63526 24.2051 3.38725 19.2361 6.35309C13.8127 2.21926 4.22353 -0.678814 2.83827 0.138386C1.12215 1.15092 -1.69818 15.9781 1.65832 21.6646C2.21242 22.6034 2.88412 23.4266 3.62956 24.1541C1.32745 29.2407 0 34.8016 0 40.4602C0 60.37 15.9673 65.4167 35.8771 65.4167C55.7868 65.4167 71.7541 60.37 71.7541 40.4602C71.7541 34.8235 70.4386 29.2865 68.1525 24.2159Z" fill="#F4ABBA"/>
<path d="M14.7458 9.53824C10.4286 7.01289 5.97185 5.39245 5.17857 5.86084C4.04246 6.53254 3.01996 15.8227 4.47697 22.3344C7.01428 17.3854 10.5362 13.0024 14.7458 9.53824ZM67.2758 22.3324C68.7368 15.8207 67.7123 6.53055 66.5762 5.85885C65.7829 5.39045 61.3242 7.0109 57.007 9.53625C61.2205 13.0024 64.7405 17.3853 67.2758 22.3324ZM55.8091 43.741C55.8091 52.6844 49.6362 62.427 35.8774 62.427C22.1165 62.427 15.9457 52.6844 15.9457 43.741C15.9457 34.7977 22.1165 32.5295 35.8774 32.5295C49.6362 32.5295 55.8091 34.7977 55.8091 43.741Z" fill="#EA596E"/>
<path d="M29.8985 46.681C29.8985 50.3823 29.2208 51.4646 26.9087 51.4646C24.5966 51.4646 23.9189 50.3823 23.9189 46.681C23.9189 42.9817 24.5966 41.8994 26.9087 41.8994C29.2208 41.8994 29.8985 42.9797 29.8985 46.681ZM47.837 46.681C47.837 50.3823 47.1593 51.4646 44.8472 51.4646C42.5352 51.4646 41.8575 50.3823 41.8575 46.681C41.8575 42.9817 42.5352 41.8994 44.8472 41.8994C47.1593 41.8994 47.837 42.9797 47.837 46.681Z" fill="#662113"/>
<path d="M13.9512 35.5191C16.1528 35.5191 17.9375 33.7343 17.9375 31.5327C17.9375 29.3311 16.1528 27.5464 13.9512 27.5464C11.7496 27.5464 9.96484 29.3311 9.96484 31.5327C9.96484 33.7343 11.7496 35.5191 13.9512 35.5191Z" fill="#231E51"/>
<path d="M57.8018 35.5191C60.0034 35.5191 61.7881 33.7343 61.7881 31.5327C61.7881 29.3311 60.0034 27.5464 57.8018 27.5464C55.6002 27.5464 53.8154 29.3311 53.8154 31.5327C53.8154 33.7343 55.6002 35.5191 57.8018 35.5191Z" fill="#231E51"/>
</svg>
