<svg width="67" height="72" viewBox="0 0 67 72" fill="none" xmlns="http://www.w3.org/2000/svg">
<path d="M11.7656 24.2519C18.2301 24.2519 23.4707 19.0114 23.4707 12.5469C23.4707 6.08233 18.2301 0.841797 11.7656 0.841797C5.30108 0.841797 0.0605469 6.08233 0.0605469 12.5469C0.0605469 19.0114 5.30108 24.2519 11.7656 24.2519Z" fill="#FFD363"/>
<path d="M33.2246 71.0722C39.6891 71.0722 44.9297 65.8317 44.9297 59.3672C44.9297 52.9026 39.6891 47.6621 33.2246 47.6621C26.7601 47.6621 21.5195 52.9026 21.5195 59.3672C21.5195 65.8317 26.7601 71.0722 33.2246 71.0722Z" fill="#FFD363"/>
<path d="M33.2243 67.1702C37.534 67.1702 41.0277 63.6765 41.0277 59.3669C41.0277 55.0572 37.534 51.5635 33.2243 51.5635C28.9146 51.5635 25.4209 55.0572 25.4209 59.3669C25.4209 63.6765 28.9146 67.1702 33.2243 67.1702Z" fill="#DD2E44"/>
<path d="M54.6846 24.2519C61.1491 24.2519 66.3896 19.0114 66.3896 12.5469C66.3896 6.08233 61.1491 0.841797 54.6846 0.841797C48.22 0.841797 42.9795 6.08233 42.9795 12.5469C42.9795 19.0114 48.22 24.2519 54.6846 24.2519Z" fill="#FFD363"/>
<path d="M11.7653 20.3504C16.075 20.3504 19.5687 16.8567 19.5687 12.547C19.5687 8.23734 16.075 4.74365 11.7653 4.74365C7.45561 4.74365 3.96191 8.23734 3.96191 12.547C3.96191 16.8567 7.45561 20.3504 11.7653 20.3504Z" fill="#E6AAAA"/>
<path d="M54.6842 20.3504C58.9939 20.3504 62.4876 16.8567 62.4876 12.547C62.4876 8.23734 58.9939 4.74365 54.6842 4.74365C50.3746 4.74365 46.8809 8.23734 46.8809 12.547C46.8809 16.8567 50.3746 20.3504 54.6842 20.3504Z" fill="#E6AAAA"/>
<path d="M64.4378 43.7604C64.4378 57.4163 54.8338 57.4163 54.8338 57.4163H11.6147C11.6147 57.4163 2.01074 57.4163 2.01074 43.7604C2.01074 43.7604 4.41223 0.841797 33.2243 0.841797C62.0382 0.841797 64.4378 43.7604 64.4378 43.7604Z" fill="#FFD363"/>
<path d="M19.5693 34.0062C19.5693 34.0062 19.5693 30.1045 23.471 30.1045C27.3727 30.1045 27.3727 34.0062 27.3727 34.0062V37.9079C27.3727 37.9079 27.3727 41.8096 23.471 41.8096C19.5693 41.8096 19.5693 37.9079 19.5693 37.9079V34.0062ZM39.0778 34.0062C39.0778 34.0062 39.0778 30.1045 42.9795 30.1045C46.8812 30.1045 46.8812 34.0062 46.8812 34.0062V37.9079C46.8812 37.9079 46.8812 41.8096 42.9795 41.8096C39.0778 41.8096 39.0778 37.9079 39.0778 37.9079V34.0062Z" fill="#231E51"/>
<path d="M44.3018 45.7109C39.6159 45.7109 35.5211 47.5701 33.2249 50.35C30.9288 47.5701 26.832 45.7109 22.1461 45.7109C2.0114 45.7109 2.09528 46.5322 2.0114 51.9185C1.84167 62.8628 14.9455 65.3794 22.1461 65.2194C26.83 65.116 30.9288 63.29 33.2249 60.5432C35.5211 63.29 39.6159 65.1179 44.3018 65.2194C51.5024 65.3794 64.6082 62.8628 64.4365 51.9185C64.3526 46.5322 64.4365 45.7109 44.3018 45.7109Z" fill="white"/>
<path d="M63.7751 50.085C64.1731 50.6293 64.4248 51.2321 64.4365 51.9169C64.495 55.6332 62.9831 58.3605 60.7006 60.3582L50.7806 61.318L63.7751 50.085ZM27.3724 49.6129C25.4215 51.5638 31.2741 57.4163 33.2249 57.4163C35.1758 57.4163 41.0283 51.5638 39.0775 49.6129C37.1266 47.6621 29.3232 47.6621 27.3724 49.6129ZM17.6182 6.69433C22.8211 10.596 33.2249 14.4977 33.2249 14.4977C33.2249 14.4977 43.6288 10.596 48.8317 6.69433L33.2249 8.64518L17.6182 6.69433ZM33.2249 4.74349C33.2249 4.74349 36.4477 3.53396 40.2011 1.78991C38.063 1.18905 35.7513 0.841797 33.2249 0.841797C30.6986 0.841797 28.3849 1.18905 26.2487 1.78991C30.0021 3.53396 33.2249 4.74349 33.2249 4.74349ZM19.569 18.3994C25.4215 22.3011 33.2249 26.2028 33.2249 26.2028C33.2249 26.2028 41.0283 22.3011 46.8808 18.3994L33.2249 20.3502L19.569 18.3994ZM59.8442 22.8571L50.7825 30.1045L62.4993 31.5676C61.8477 28.8345 60.9835 25.8555 59.8442 22.8571ZM63.5723 36.8232L52.7334 47.6621H64.1165C64.3155 46.5013 64.4384 45.2216 64.4384 43.7604C64.4384 43.7604 64.2804 40.9707 63.5723 36.8232ZM2.87758 36.8232C2.17138 40.9707 2.01141 43.7604 2.01141 43.7604C2.01141 45.2196 2.13431 46.5013 2.3333 47.6621H13.7165L2.87758 36.8232ZM2.67274 50.085C2.27477 50.6293 2.02311 51.2321 2.01141 51.9188C1.95288 55.6352 3.46479 58.3625 5.74922 60.3601L15.6673 61.318L2.67274 50.085ZM15.6673 30.1045L6.6076 22.8571C5.4683 25.8555 4.60213 28.8345 3.9525 31.5696L15.6673 30.1045Z" fill="#231E51"/>
</svg>
