<svg width="280" height="280" viewBox="0 0 280 280" fill="none" xmlns="http://www.w3.org/2000/svg">
<g clip-path="url(#clip0_589_103)">
<path d="M258.14 129.275C258.14 187.848 210.657 235.331 152.084 235.331C93.5104 235.331 46.0273 187.848 46.0273 129.275C46.0273 70.7018 93.5104 23.2188 152.084 23.2188C210.657 23.2188 258.14 70.7018 258.14 129.275Z" fill="#2C785F"/>
<path d="M110.937 205.974L89.0156 184.054L228.245 27.95L273.967 21.6826L266.237 67.5511L110.937 205.974Z" fill="#2C785F"/>
<path d="M126.3 243.441C124.515 255.696 119.382 256.276 114.9 244.731C114.9 244.731 111.309 235.486 85.4136 209.591C59.5185 183.697 50.2712 180.106 50.2712 180.106C38.7263 175.621 39.3086 170.489 51.5629 168.702C51.5629 168.702 78.4277 164.785 104.32 190.68C130.217 216.575 126.3 243.441 126.3 243.441Z" fill="#2C785F"/>
<path d="M97.4629 183.378L111.62 197.535L52.0194 257.136L37.8619 242.979L97.4629 183.378Z" fill="#2C785F"/>
<path d="M57.4363 262.772C51.5732 268.634 43.5951 270.163 39.6174 266.184L28.8102 255.377C24.8313 251.398 26.3607 243.421 32.2226 237.557C38.0857 231.695 46.0627 230.168 50.0405 234.147L60.8476 244.953C64.8254 248.932 63.2983 256.909 57.4363 262.772Z" fill="#2C785F"/>
<path d="M214.08 183.635L192.159 205.557L36.0534 66.3277L29.7871 20.6045L75.6556 28.3348L214.08 183.635Z" fill="#2C785F"/>
<path d="M251.544 168.283C263.8 170.068 264.379 175.199 252.835 179.681C252.835 179.681 243.59 183.272 217.695 209.168C191.802 235.062 188.21 244.31 188.21 244.31C183.725 255.855 178.594 255.273 176.805 243.019C176.805 243.019 172.887 216.155 198.783 190.26C224.679 164.363 251.544 168.283 251.544 168.283Z" fill="#2C785F"/>
<path d="M191.48 197.122L205.638 182.965L265.237 242.564L251.08 256.721L191.48 197.122Z" fill="#2C785F"/>
<path d="M270.878 237.148C276.74 243.01 278.269 250.988 274.29 254.968L263.482 265.773C259.503 269.753 251.524 268.225 245.663 262.362C239.801 256.5 238.273 248.523 242.253 244.544L253.059 233.737C257.038 229.758 265.015 231.285 270.878 237.148Z" fill="#2C785F"/>
<path d="M101.076 206.476L79.1543 184.555L218.384 28.452L264.106 22.1846L256.375 68.0531L101.076 206.476Z" fill="white"/>
<path d="M116.434 243.943C114.649 256.198 109.517 256.778 105.035 245.233C105.035 245.233 101.443 235.988 75.5483 210.093C49.6533 184.199 40.4059 180.608 40.4059 180.608C28.8611 176.123 29.4433 170.991 41.6977 169.203C41.6977 169.203 68.5624 165.287 94.4552 191.182C120.351 217.077 116.434 243.943 116.434 243.943Z" fill="white"/>
<path d="M87.5898 183.88L101.747 198.037L42.1463 257.638L27.9889 243.481L87.5898 183.88Z" fill="white"/>
<path d="M47.5711 263.278C41.708 269.14 33.7299 270.669 29.7521 266.69L18.945 255.883C14.966 251.904 16.4954 243.927 22.3574 238.063C28.2205 232.201 36.1974 230.674 40.1752 234.653L50.9824 245.459C54.9602 249.438 53.433 257.415 47.5711 263.278Z" fill="white"/>
<path d="M204.215 184.137L182.294 206.059L26.1881 66.8296L19.9219 21.1064L65.7904 28.8368L204.215 184.137Z" fill="white"/>
<path d="M241.679 168.785C253.934 170.57 254.513 175.701 242.97 180.183C242.97 180.183 233.725 183.774 207.829 209.67C181.937 235.564 178.345 244.812 178.345 244.812C173.859 256.357 168.728 255.775 166.94 243.521C166.94 243.521 163.022 216.657 188.918 190.762C214.814 164.865 241.679 168.785 241.679 168.785Z" fill="white"/>
<path d="M181.615 197.624L195.773 183.467L255.372 243.066L241.215 257.223L181.615 197.624Z" fill="white"/>
<path d="M261.009 237.65C266.871 243.512 268.4 251.49 264.421 255.47L253.613 266.275C249.634 270.255 241.655 268.727 235.794 262.864C229.932 257.002 228.404 249.025 232.384 245.046L243.19 234.239C247.169 230.26 255.146 231.787 261.009 237.65Z" fill="white"/>
<path d="M246.277 129.86C246.277 188.433 198.794 235.916 140.22 235.916C81.6471 235.916 34.1641 188.433 34.1641 129.86C34.1641 71.2867 81.6471 23.8037 140.22 23.8037C198.794 23.8037 246.277 71.2867 246.277 129.86Z" fill="white"/>
<circle cx="138.754" cy="129.861" r="92.8907" fill="#2F46BD"/>
</g>
<defs>
<clipPath id="clip0_589_103">
<rect width="280" height="280" fill="white"/>
</clipPath>
</defs>
</svg>
