<svg width="120" height="64" viewBox="0 0 120 64" fill="none" xmlns="http://www.w3.org/2000/svg">
<g id="Logo">
<g id="shadow">
<path id="Vector" d="M119.478 40.0624C119.308 31.9315 112.527 27.0709 111.643 26.4528C112.648 25.7223 114.833 23.9185 116.108 20.7044C116.304 20.2324 117.108 18.0465 117.06 15.0627C116.917 6.9824 110.733 0.627129 102.851 0.00340208C102.417 -0.0303129 102 0.188834 101.746 0.559699L95.8526 9.13453C95.7679 9.26377 95.8526 9.43797 96.0007 9.43797H100.196C103.317 9.43797 105.845 12.1183 105.845 15.428C105.845 17.08 105.211 18.5803 104.184 19.6648C103.163 20.755 101.756 21.4236 100.196 21.4236H89.2665C88.6793 21.4236 88.1239 21.3281 87.5896 21.1539H87.5843L79.4853 32.9148C79.2155 33.3025 79.2208 33.8363 79.4853 34.2241L93.3663 54.0878C93.8529 54.7846 94.6306 55.1892 95.4452 55.1723L104.19 55.0037C104.898 54.9531 114.69 54.0709 118.25 46.2435C118.578 45.5298 119.541 43.2203 119.478 40.0511V40.0624ZM106.75 43.7542C105.681 44.8892 104.205 45.5916 102.576 45.5916H98.1696C96.3022 45.5916 94.4084 41.9785 92.541 39.3206C90.9858 37.1067 88.6211 33.044 88.6211 33.044H103.036C104.898 33.044 106.634 34.0836 107.559 35.7974C109.173 38.7981 108.522 41.883 106.75 43.7542Z" fill="#6360F4"/>
<path id="Vector_2" d="M45.2909 15.035L45.1798 14.9508C41.6143 12.1299 35.0758 11.7085 31.4945 11.7085C23.0834 11.7085 15.5451 14.8608 10.2604 20.5755C5.35129 25.88 2.72216 33.0332 2.84912 40.6977C3.00253 50.0592 7.34033 58.3531 14.7569 63.4609C15.1008 63.6969 15.4922 63.8149 15.8731 63.8149C16.5397 63.8149 17.1956 63.4722 17.5818 62.8372L22.6708 54.5433C23.3955 53.3689 23.1998 51.7899 22.2211 50.874C19.465 48.3061 17.9045 44.5862 17.8251 40.4055C17.6823 31.9768 23.3902 25.9699 31.7167 25.8126C33.6846 25.7732 36.0333 25.8351 38.6889 25.998C39.5618 26.043 40.4029 25.6103 40.9001 24.8461L46.0844 17.9289L46.1425 17.839C47.026 16.3949 45.7141 15.3722 45.2856 15.035H45.2909Z" fill="#6360F4"/>
<path id="Vector_3" d="M82.0092 61.6736L64.3723 34.4601C64.1872 34.1735 64.1924 33.797 64.3829 33.516L81.3479 8.57261C81.6283 8.16241 81.6336 7.61173 81.3479 7.18468C81.1311 6.85315 80.7502 6.68457 80.3693 6.68457H67.4564C67.0332 6.68457 66.6364 6.90934 66.4037 7.2802L50.7505 31.7685L49.7349 33.3419C49.3751 33.8982 49.3698 34.6343 49.7296 35.1962L50.7294 36.7695L66.3561 63.0391C66.7158 63.6404 67.3241 64 67.996 64H80.7925C81.2051 64 81.6177 63.837 81.8928 63.5111C82.3372 62.9773 82.3689 62.2243 82.0039 61.668L82.0092 61.6736Z" fill="#6360F4"/>
<path id="Vector_4" d="M43.0468 39.8735C42.4626 39.7268 41.8296 39.9262 41.4958 40.3544L25.853 60.5948C25.547 60.9937 25.5261 61.4981 25.7904 61.9086C26.0547 62.325 26.5694 62.5831 27.1328 62.5831H41.621C42.9425 62.5831 44.0275 61.674 44.0275 60.5596L44.0971 41.023V40.7356C44.0971 40.3779 43.8119 40.0611 43.4015 39.9614L43.0468 39.8735Z" fill="#6360F4"/>
</g>
<g id="Logo_2">
<path id="Vector_5" d="M116.636 37.392C116.467 29.8034 109.685 25.2671 108.802 24.6902C109.807 24.0084 111.991 22.325 113.266 19.3253C113.462 18.8847 114.266 16.8447 114.219 14.0599C114.076 6.51859 107.892 0.587249 100.009 0.00512827C99.5755 -0.0263377 99.1576 0.178191 98.9037 0.524317L93.0104 8.52717C92.9258 8.64779 93.0104 8.81036 93.1586 8.81036H97.3537C100.475 8.81036 103.004 11.3119 103.004 14.4008C103.004 15.9427 102.369 17.3429 101.342 18.3551C100.321 19.3725 98.9142 19.9965 97.3537 19.9965H86.4242C85.837 19.9965 85.2816 19.9074 84.7473 19.7448H84.742L76.6428 30.7212C76.373 31.0831 76.3782 31.5813 76.6428 31.9431L90.5241 50.4818C91.0108 51.1321 91.7884 51.5097 92.6031 51.494L101.348 51.3367C102.057 51.2895 111.849 50.4661 115.409 43.1608C115.737 42.4947 116.7 40.3393 116.636 37.3815V37.392ZM103.908 40.8375C102.84 41.8969 101.364 42.5524 99.7342 42.5524H95.3275C93.4601 42.5524 91.5662 39.1803 89.6988 36.6997C88.1435 34.6335 85.7788 30.8418 85.7788 30.8418H100.194C102.057 30.8418 103.792 31.812 104.718 33.4115C106.331 36.212 105.68 39.0911 103.908 40.8375Z" fill="white"/>
<path id="Vector_6" d="M42.4472 14.0338L42.3361 13.9552C38.7705 11.3225 32.2319 10.9292 28.6505 10.9292C20.2392 10.9292 12.7007 13.8713 7.41588 19.2048C2.50663 24.1554 -0.122571 30.8314 0.00439229 37.9847C0.157806 46.7218 4.49572 54.4624 11.9125 59.2295C12.2564 59.4498 12.6478 59.5599 13.0287 59.5599C13.6953 59.5599 14.3513 59.24 14.7374 58.6474L19.8266 50.9068C20.5513 49.8107 20.3556 48.337 19.3769 47.4822C16.6207 45.0855 15.0601 41.6138 14.9808 37.712C14.8379 29.8455 20.546 24.2393 28.8727 24.0925C30.8406 24.0558 33.1894 24.1135 35.8451 24.2655C36.718 24.3075 37.5591 23.9037 38.0564 23.1905L43.2407 16.7347L43.2989 16.6508C44.1824 15.303 42.8704 14.3485 42.4419 14.0338H42.4472Z" fill="white"/>
<path id="Vector_7" d="M79.1663 57.5618L61.5289 32.1635C61.3438 31.896 61.3491 31.5446 61.5395 31.2824L78.505 8.00282C78.7854 7.61998 78.7907 7.10604 78.505 6.70747C78.2881 6.39805 77.9072 6.24072 77.5263 6.24072H64.6131C64.1899 6.24072 63.7931 6.4505 63.5603 6.79662L47.9068 29.6514L46.8911 31.1198C46.5314 31.639 46.5261 32.326 46.8858 32.8505L47.8857 34.3189L63.5127 58.8361C63.8725 59.3973 64.4808 59.7329 65.1527 59.7329H77.9495C78.3622 59.7329 78.7748 59.5808 79.0499 59.2767C79.4942 58.7785 79.526 58.0757 79.161 57.5565L79.1663 57.5618Z" fill="#43FFC0"/>
<path id="Vector_8" d="M41.4582 39.2537C41.0138 39.1226 40.5324 39.3009 40.2785 39.6837L28.381 57.7819C28.1482 58.1385 28.1323 58.5895 28.3333 58.9566C28.5344 59.329 28.9258 59.5597 29.3543 59.5597H40.3737C41.3788 59.5597 42.2041 58.7469 42.2041 57.7504L42.257 40.2815V40.0246C42.257 39.7047 42.0401 39.4215 41.728 39.3323L41.4582 39.2537Z" fill="#43FFC0"/>
</g>
</g>
</svg>
