<svg width="273" height="275" viewBox="0 0 273 275" fill="none" xmlns="http://www.w3.org/2000/svg">
<path d="M110.393 210.637C108.558 210.922 106.703 211.063 104.845 211.059H105.495C89.5054 211.091 75.2795 203.441 58.6741 192.371C-3.75446 192.371 6.6503 260.002 6.6503 260.002" stroke="black" stroke-width="10.4048" stroke-linecap="round" stroke-linejoin="round"/>
<path d="M103.082 230.062H58.6646L58.6749 192.371" stroke="black" stroke-width="10.4048" stroke-linecap="round" stroke-linejoin="round"/>
<path d="M34.4004 196.893V259.892" stroke="black" stroke-width="10.4048" stroke-linecap="round" stroke-linejoin="round"/>
<path d="M101.418 269.804H231.425L267.582 184.75H137.574L101.418 269.804Z" stroke="black" stroke-width="10.4048" stroke-linecap="round" stroke-linejoin="round"/>
<path d="M44.3459 269.808H101.416" stroke="black" stroke-width="10.4048" stroke-linecap="round" stroke-linejoin="round"/>
<path d="M117.788 143.998L105.076 128.316" stroke="black" stroke-width="9.36428" stroke-linecap="round" stroke-linejoin="round"/>
<path d="M92.3644 143.998L105.076 128.316" stroke="black" stroke-width="9.36428" stroke-linecap="round" stroke-linejoin="round"/>
<path d="M92.3644 128.316H117.787" stroke="black" stroke-width="9.36428" stroke-linecap="round" stroke-linejoin="round"/>
<path d="M177.475 83.0244L179.757 104.793C179.768 114.05 177.97 123.22 174.466 131.788" stroke="black" stroke-width="10.4048" stroke-linecap="round" stroke-linejoin="round"/>
<path d="M35.6864 131.788C32.1817 123.22 30.3843 114.05 30.3951 104.793L41.5177 6L75.0689 38.3114C84.0746 34.566 93.7339 32.6442 103.487 32.6575H106.665C116.42 32.6449 126.08 34.5666 135.087 38.3114L168.634 6L172.096 39.29" stroke="black" stroke-width="10.4048" stroke-linecap="round" stroke-linejoin="round"/>
<path d="M64.8188 165.495C76.4443 172.654 89.8347 176.432 103.488 176.404H106.665C120.318 176.432 133.709 172.654 145.334 165.495" stroke="black" stroke-width="9.36428" stroke-linecap="round" stroke-linejoin="round"/>
<path d="M66.9413 109.495C70.4515 109.495 73.2971 106.687 73.2971 103.223C73.2971 99.7585 70.4515 96.9502 66.9413 96.9502C63.4311 96.9502 60.5856 99.7585 60.5856 103.223C60.5856 106.687 63.4311 109.495 66.9413 109.495Z" fill="black"/>
<path d="M143.211 109.495C146.721 109.495 149.567 106.687 149.567 103.223C149.567 99.7585 146.721 96.9502 143.211 96.9502C139.701 96.9502 136.855 99.7585 136.855 103.223C136.855 106.687 139.701 109.495 143.211 109.495Z" fill="black"/>
<path d="M163.458 88.6338C163.458 88.6338 120.966 106.361 122.964 108.611C163.623 145.11 166.813 93.7181 163.458 88.6338Z" stroke="black" stroke-width="8.3238" stroke-linecap="round" stroke-linejoin="round"/>
<path d="M183.483 152.35L154.882 136.669" stroke="black" stroke-width="8.3238" stroke-linecap="round" stroke-linejoin="round"/>
<path d="M171.813 165.951L143.211 150.27" stroke="black" stroke-width="8.3238" stroke-linecap="round" stroke-linejoin="round"/>
<path d="M46.6948 88.6338C46.6948 88.6338 86.0086 109.495 87.1885 108.611C47.9392 147.024 42.7316 96.9737 46.6948 88.6338Z" stroke="black" stroke-width="8.3238" stroke-linecap="round" stroke-linejoin="round"/>
<path d="M26.6692 152.35L55.2703 136.669" stroke="black" stroke-width="8.3238" stroke-linecap="round" stroke-linejoin="round"/>
<path d="M38.3402 165.951L66.9413 150.27" stroke="black" stroke-width="8.3238" stroke-linecap="round" stroke-linejoin="round"/>
<path d="M163.071 53.9698L36.4144 50.9316L33.8809 75.5285L163.108 67.7145" stroke="black" stroke-width="8.3238" stroke-linecap="round" stroke-linejoin="round"/>
<path d="M181.275 60.813C181.275 62.8708 180.665 64.8825 179.522 66.5935C178.379 68.3046 176.754 69.6382 174.852 70.4257C172.951 71.2132 170.859 71.4193 168.841 71.0178C166.822 70.6163 164.968 69.6254 163.513 68.1702C162.058 66.7151 161.067 64.8611 160.666 62.8428C160.264 60.8245 160.47 58.7324 161.258 56.8312C162.045 54.93 163.379 53.305 165.09 52.1617C166.801 51.0184 168.813 50.4082 170.871 50.4082C173.63 50.4092 176.276 51.5057 178.227 53.4567C180.178 55.4078 181.274 58.0537 181.275 60.813Z" stroke="black" stroke-width="8.3238" stroke-linecap="round" stroke-linejoin="round"/>
</svg>
